solid csg.js
facet normal 0.8660254037844386 0 -0.5000000000000001
outer loop
vertex 0 0 0
vertex -48.000000000000014 0 -83.13843876330611
vertex -48.000000000000014 4 -83.13843876330611
endloop
endfacet
facet normal 0.8660254037844386 0 -0.5000000000000001
outer loop
vertex 0 0 0
vertex -48.000000000000014 4 -83.13843876330611
vertex 0 4 0
endloop
endfacet
facet normal -0.8660254037844386 0 0.5000000000000001
outer loop
vertex -1.7320508075688772 0 1.0000000000000002
vertex -1.7320508075688772 4 1.0000000000000002
vertex -49.73205080756889 4 -82.13843876330611
endloop
endfacet
facet normal -0.8660254037844386 0 0.5000000000000001
outer loop
vertex -1.7320508075688772 0 1.0000000000000002
vertex -49.73205080756889 4 -82.13843876330611
vertex -49.73205080756889 0 -82.13843876330611
endloop
endfacet
facet normal 0 -1 0
outer loop
vertex 0 0 0
vertex -1.7320508075688772 0 1.0000000000000002
vertex -49.73205080756889 0 -82.13843876330611
endloop
endfacet
facet normal 0 -1 0
outer loop
vertex 0 0 0
vertex -49.73205080756889 0 -82.13843876330611
vertex -48.000000000000014 0 -83.13843876330611
endloop
endfacet
facet normal 0 1 0
outer loop
vertex 0 4 0
vertex -48.000000000000014 4 -83.13843876330611
vertex -49.73205080756889 4 -82.13843876330611
endloop
endfacet
facet normal 0 1 0
outer loop
vertex 0 4 0
vertex -49.73205080756889 4 -82.13843876330611
vertex -1.7320508075688772 4 1.0000000000000002
endloop
endfacet
facet normal 0.5000000000000001 0 0.8660254037844386
outer loop
vertex 0 0 0
vertex 0 4 0
vertex -1.7320508075688772 4 1.0000000000000002
endloop
endfacet
facet normal 0.5000000000000001 0 0.8660254037844386
outer loop
vertex 0 0 0
vertex -1.7320508075688772 4 1.0000000000000002
vertex -1.7320508075688772 0 1.0000000000000002
endloop
endfacet
facet normal -0.499999999999999 0 -0.8660254037844393
outer loop
vertex -48.000000000000014 0 -83.13843876330611
vertex -49.73205080756889 0 -82.13843876330611
vertex -49.73205080756889 4 -82.13843876330611
endloop
endfacet
facet normal -0.499999999999999 0 -0.8660254037844393
outer loop
vertex -48.000000000000014 0 -83.13843876330611
vertex -49.73205080756889 4 -82.13843876330611
vertex -48.000000000000014 4 -83.13843876330611
endloop
endfacet
facet normal 0.8660254037844386 0 0.5000000000000001
outer loop
vertex 0 0 0
vertex 48.000000000000014 0 -83.13843876330611
vertex 48.000000000000014 4 -83.13843876330611
endloop
endfacet
facet normal 0.8660254037844386 0 0.5000000000000001
outer loop
vertex 0 0 0
vertex 48.000000000000014 4 -83.13843876330611
vertex 0 4 0
endloop
endfacet
facet normal -0.8660254037844386 0 -0.5000000000000002
outer loop
vertex -1.7320508075688772 0 -1.0000000000000002
vertex -1.7320508075688772 4 -1.0000000000000002
vertex 46.26794919243114 4 -84.13843876330611
endloop
endfacet
facet normal -0.8660254037844386 0 -0.5000000000000002
outer loop
vertex -1.7320508075688772 0 -1.0000000000000002
vertex 46.26794919243114 4 -84.13843876330611
vertex 46.26794919243114 0 -84.13843876330611
endloop
endfacet
facet normal 0 -1 0
outer loop
vertex 0 0 0
vertex -1.7320508075688772 0 -1.0000000000000002
vertex 46.26794919243114 0 -84.13843876330611
endloop
endfacet
facet normal 0 -1 0
outer loop
vertex 0 0 0
vertex 46.26794919243114 0 -84.13843876330611
vertex 48.000000000000014 0 -83.13843876330611
endloop
endfacet
facet normal 0 1 0
outer loop
vertex 0 4 0
vertex 48.000000000000014 4 -83.13843876330611
vertex 46.26794919243114 4 -84.13843876330611
endloop
endfacet
facet normal 0 1 0
outer loop
vertex 0 4 0
vertex 46.26794919243114 4 -84.13843876330611
vertex -1.7320508075688772 4 -1.0000000000000002
endloop
endfacet
facet normal -0.5000000000000001 0 0.8660254037844386
outer loop
vertex 0 0 0
vertex 0 4 0
vertex -1.7320508075688772 4 -1.0000000000000002
endloop
endfacet
facet normal -0.5000000000000001 0 0.8660254037844386
outer loop
vertex 0 0 0
vertex -1.7320508075688772 4 -1.0000000000000002
vertex -1.7320508075688772 0 -1.0000000000000002
endloop
endfacet
facet normal 0.499999999999999 0 -0.8660254037844393
outer loop
vertex 48.000000000000014 0 -83.13843876330611
vertex 46.26794919243114 0 -84.13843876330611
vertex 46.26794919243114 4 -84.13843876330611
endloop
endfacet
facet normal 0.499999999999999 0 -0.8660254037844393
outer loop
vertex 48.000000000000014 0 -83.13843876330611
vertex 46.26794919243114 4 -84.13843876330611
vertex 48.000000000000014 4 -83.13843876330611
endloop
endfacet
facet normal 0.8660254037844386 0 -0.5000000000000001
outer loop
vertex 0 24 0
vertex -48.000000000000014 24 -83.13843876330611
vertex -48.000000000000014 28 -83.13843876330611
endloop
endfacet
facet normal 0.8660254037844386 0 -0.5000000000000001
outer loop
vertex 0 24 0
vertex -48.000000000000014 28 -83.13843876330611
vertex 0 28 0
endloop
endfacet
facet normal -0.8660254037844385 0 0.5000000000000001
outer loop
vertex -1.7320508075688772 24 1.0000000000000002
vertex -1.7320508075688772 28 1.0000000000000002
vertex -49.73205080756889 28 -82.13843876330611
endloop
endfacet
facet normal -0.8660254037844385 0 0.5000000000000001
outer loop
vertex -1.7320508075688772 24 1.0000000000000002
vertex -49.73205080756889 28 -82.13843876330611
vertex -49.73205080756889 24 -82.13843876330611
endloop
endfacet
facet normal 0 -1 0
outer loop
vertex 0 24 0
vertex -1.7320508075688772 24 1.0000000000000002
vertex -49.73205080756889 24 -82.13843876330611
endloop
endfacet
facet normal 0 -1 0
outer loop
vertex 0 24 0
vertex -49.73205080756889 24 -82.13843876330611
vertex -48.000000000000014 24 -83.13843876330611
endloop
endfacet
facet normal 0 1 0
outer loop
vertex 0 28 0
vertex -48.000000000000014 28 -83.13843876330611
vertex -49.73205080756889 28 -82.13843876330611
endloop
endfacet
facet normal 0 1 0
outer loop
vertex 0 28 0
vertex -49.73205080756889 28 -82.13843876330611
vertex -1.7320508075688772 28 1.0000000000000002
endloop
endfacet
facet normal 0.5000000000000001 0 0.8660254037844386
outer loop
vertex 0 24 0
vertex 0 28 0
vertex -1.7320508075688772 28 1.0000000000000002
endloop
endfacet
facet normal 0.5000000000000001 0 0.8660254037844386
outer loop
vertex 0 24 0
vertex -1.7320508075688772 28 1.0000000000000002
vertex -1.7320508075688772 24 1.0000000000000002
endloop
endfacet
facet normal -0.499999999999999 0 -0.8660254037844393
outer loop
vertex -48.000000000000014 24 -83.13843876330611
vertex -49.73205080756889 24 -82.13843876330611
vertex -49.73205080756889 28 -82.13843876330611
endloop
endfacet
facet normal -0.499999999999999 0 -0.8660254037844393
outer loop
vertex -48.000000000000014 24 -83.13843876330611
vertex -49.73205080756889 28 -82.13843876330611
vertex -48.000000000000014 28 -83.13843876330611
endloop
endfacet
facet normal 0.8660254037844386 0 0.5000000000000001
outer loop
vertex 0 24 0
vertex 48.000000000000014 24 -83.13843876330611
vertex 48.000000000000014 28 -83.13843876330611
endloop
endfacet
facet normal 0.8660254037844386 0 0.5000000000000001
outer loop
vertex 0 24 0
vertex 48.000000000000014 28 -83.13843876330611
vertex 0 28 0
endloop
endfacet
facet normal -0.8660254037844386 0 -0.5000000000000002
outer loop
vertex -1.7320508075688772 24 -1.0000000000000002
vertex -1.7320508075688772 28 -1.0000000000000002
vertex 46.26794919243114 28 -84.13843876330611
endloop
endfacet
facet normal -0.8660254037844386 0 -0.5000000000000002
outer loop
vertex -1.7320508075688772 24 -1.0000000000000002
vertex 46.26794919243114 28 -84.13843876330611
vertex 46.26794919243114 24 -84.13843876330611
endloop
endfacet
facet normal 0 -1 0
outer loop
vertex 0 24 0
vertex -1.7320508075688772 24 -1.0000000000000002
vertex 46.26794919243114 24 -84.13843876330611
endloop
endfacet
facet normal 0 -1 0
outer loop
vertex 0 24 0
vertex 46.26794919243114 24 -84.13843876330611
vertex 48.000000000000014 24 -83.13843876330611
endloop
endfacet
facet normal 0 1 0
outer loop
vertex 0 28 0
vertex 48.000000000000014 28 -83.13843876330611
vertex 46.26794919243114 28 -84.13843876330611
endloop
endfacet
facet normal 0 1 0
outer loop
vertex 0 28 0
vertex 46.26794919243114 28 -84.13843876330611
vertex -1.7320508075688772 28 -1.0000000000000002
endloop
endfacet
facet normal -0.5000000000000001 0 0.8660254037844386
outer loop
vertex 0 24 0
vertex 0 28 0
vertex -1.7320508075688772 28 -1.0000000000000002
endloop
endfacet
facet normal -0.5000000000000001 0 0.8660254037844386
outer loop
vertex 0 24 0
vertex -1.7320508075688772 28 -1.0000000000000002
vertex -1.7320508075688772 24 -1.0000000000000002
endloop
endfacet
facet normal 0.499999999999999 0 -0.8660254037844393
outer loop
vertex 48.000000000000014 24 -83.13843876330611
vertex 46.26794919243114 24 -84.13843876330611
vertex 46.26794919243114 28 -84.13843876330611
endloop
endfacet
facet normal 0.499999999999999 0 -0.8660254037844393
outer loop
vertex 48.000000000000014 24 -83.13843876330611
vertex 46.26794919243114 28 -84.13843876330611
vertex 48.000000000000014 28 -83.13843876330611
endloop
endfacet
facet normal 0.8660254037844386 0 -0.5000000000000001
outer loop
vertex 0 48 0
vertex -48.000000000000014 48 -83.13843876330611
vertex -48.000000000000014 52 -83.13843876330611
endloop
endfacet
facet normal 0.8660254037844386 0 -0.5000000000000001
outer loop
vertex 0 48 0
vertex -48.000000000000014 52 -83.13843876330611
vertex 0 52 0
endloop
endfacet
facet normal -0.8660254037844385 0 0.5000000000000001
outer loop
vertex -1.7320508075688772 48 1.0000000000000002
vertex -1.7320508075688772 52 1.0000000000000002
vertex -49.73205080756889 52 -82.13843876330611
endloop
endfacet
facet normal -0.8660254037844385 0 0.5000000000000001
outer loop
vertex -1.7320508075688772 48 1.0000000000000002
vertex -49.73205080756889 52 -82.13843876330611
vertex -49.73205080756889 48 -82.13843876330611
endloop
endfacet
facet normal 0 -1 0
outer loop
vertex 0 48 0
vertex -1.7320508075688772 48 1.0000000000000002
vertex -49.73205080756889 48 -82.13843876330611
endloop
endfacet
facet normal 0 -1 0
outer loop
vertex 0 48 0
vertex -49.73205080756889 48 -82.13843876330611
vertex -48.000000000000014 48 -83.13843876330611
endloop
endfacet
facet normal 0 1 0
outer loop
vertex 0 52 0
vertex -48.000000000000014 52 -83.13843876330611
vertex -49.73205080756889 52 -82.13843876330611
endloop
endfacet
facet normal 0 1 0
outer loop
vertex 0 52 0
vertex -49.73205080756889 52 -82.13843876330611
vertex -1.7320508075688772 52 1.0000000000000002
endloop
endfacet
facet normal 0.5000000000000001 0 0.8660254037844386
outer loop
vertex 0 48 0
vertex 0 52 0
vertex -1.7320508075688772 52 1.0000000000000002
endloop
endfacet
facet normal 0.5000000000000001 0 0.8660254037844386
outer loop
vertex 0 48 0
vertex -1.7320508075688772 52 1.0000000000000002
vertex -1.7320508075688772 48 1.0000000000000002
endloop
endfacet
facet normal -0.499999999999999 0 -0.8660254037844393
outer loop
vertex -48.000000000000014 48 -83.13843876330611
vertex -49.73205080756889 48 -82.13843876330611
vertex -49.73205080756889 52 -82.13843876330611
endloop
endfacet
facet normal -0.499999999999999 0 -0.8660254037844393
outer loop
vertex -48.000000000000014 48 -83.13843876330611
vertex -49.73205080756889 52 -82.13843876330611
vertex -48.000000000000014 52 -83.13843876330611
endloop
endfacet
facet normal 0.8660254037844386 0 0.5000000000000001
outer loop
vertex 0 48 0
vertex 48.000000000000014 48 -83.13843876330611
vertex 48.000000000000014 52 -83.13843876330611
endloop
endfacet
facet normal 0.8660254037844386 0 0.5000000000000001
outer loop
vertex 0 48 0
vertex 48.000000000000014 52 -83.13843876330611
vertex 0 52 0
endloop
endfacet
facet normal -0.8660254037844386 0 -0.5000000000000002
outer loop
vertex -1.7320508075688772 48 -1.0000000000000002
vertex -1.7320508075688772 52 -1.0000000000000002
vertex 46.26794919243114 52 -84.13843876330611
endloop
endfacet
facet normal -0.8660254037844386 0 -0.5000000000000002
outer loop
vertex -1.7320508075688772 48 -1.0000000000000002
vertex 46.26794919243114 52 -84.13843876330611
vertex 46.26794919243114 48 -84.13843876330611
endloop
endfacet
facet normal 0 -1 0
outer loop
vertex 0 48 0
vertex -1.7320508075688772 48 -1.0000000000000002
vertex 46.26794919243114 48 -84.13843876330611
endloop
endfacet
facet normal 0 -1 0
outer loop
vertex 0 48 0
vertex 46.26794919243114 48 -84.13843876330611
vertex 48.000000000000014 48 -83.13843876330611
endloop
endfacet
facet normal 0 1 0
outer loop
vertex 0 52 0
vertex 48.000000000000014 52 -83.13843876330611
vertex 46.26794919243114 52 -84.13843876330611
endloop
endfacet
facet normal 0 1 0
outer loop
vertex 0 52 0
vertex 46.26794919243114 52 -84.13843876330611
vertex -1.7320508075688772 52 -1.0000000000000002
endloop
endfacet
facet normal -0.5000000000000001 0 0.8660254037844386
outer loop
vertex 0 48 0
vertex 0 52 0
vertex -1.7320508075688772 52 -1.0000000000000002
endloop
endfacet
facet normal -0.5000000000000001 0 0.8660254037844386
outer loop
vertex 0 48 0
vertex -1.7320508075688772 52 -1.0000000000000002
vertex -1.7320508075688772 48 -1.0000000000000002
endloop
endfacet
facet normal 0.499999999999999 0 -0.8660254037844393
outer loop
vertex 48.000000000000014 48 -83.13843876330611
vertex 46.26794919243114 48 -84.13843876330611
vertex 46.26794919243114 52 -84.13843876330611
endloop
endfacet
facet normal 0.499999999999999 0 -0.8660254037844393
outer loop
vertex 48.000000000000014 48 -83.13843876330611
vertex 46.26794919243114 52 -84.13843876330611
vertex 48.000000000000014 52 -83.13843876330611
endloop
endfacet
facet normal 0.8660254037844386 0 -0.5000000000000001
outer loop
vertex 0 72 0
vertex -48.000000000000014 72 -83.13843876330611
vertex -48.000000000000014 76 -83.13843876330611
endloop
endfacet
facet normal 0.8660254037844386 0 -0.5000000000000001
outer loop
vertex 0 72 0
vertex -48.000000000000014 76 -83.13843876330611
vertex 0 76 0
endloop
endfacet
facet normal -0.8660254037844385 0 0.5000000000000001
outer loop
vertex -1.7320508075688772 72 1.0000000000000002
vertex -1.7320508075688772 76 1.0000000000000002
vertex -49.73205080756889 76 -82.13843876330611
endloop
endfacet
facet normal -0.8660254037844385 0 0.5000000000000001
outer loop
vertex -1.7320508075688772 72 1.0000000000000002
vertex -49.73205080756889 76 -82.13843876330611
vertex -49.73205080756889 72 -82.13843876330611
endloop
endfacet
facet normal 0 -1 0
outer loop
vertex 0 72 0
vertex -1.7320508075688772 72 1.0000000000000002
vertex -49.73205080756889 72 -82.13843876330611
endloop
endfacet
facet normal 0 -1 0
outer loop
vertex 0 72 0
vertex -49.73205080756889 72 -82.13843876330611
vertex -48.000000000000014 72 -83.13843876330611
endloop
endfacet
facet normal 0 1 0
outer loop
vertex 0 76 0
vertex -48.000000000000014 76 -83.13843876330611
vertex -49.73205080756889 76 -82.13843876330611
endloop
endfacet
facet normal 0 1 0
outer loop
vertex 0 76 0
vertex -49.73205080756889 76 -82.13843876330611
vertex -1.7320508075688772 76 1.0000000000000002
endloop
endfacet
facet normal 0.5000000000000001 0 0.8660254037844386
outer loop
vertex 0 72 0
vertex 0 76 0
vertex -1.7320508075688772 76 1.0000000000000002
endloop
endfacet
facet normal 0.5000000000000001 0 0.8660254037844386
outer loop
vertex 0 72 0
vertex -1.7320508075688772 76 1.0000000000000002
vertex -1.7320508075688772 72 1.0000000000000002
endloop
endfacet
facet normal -0.499999999999999 0 -0.8660254037844393
outer loop
vertex -48.000000000000014 72 -83.13843876330611
vertex -49.73205080756889 72 -82.13843876330611
vertex -49.73205080756889 76 -82.13843876330611
endloop
endfacet
facet normal -0.499999999999999 0 -0.8660254037844393
outer loop
vertex -48.000000000000014 72 -83.13843876330611
vertex -49.73205080756889 76 -82.13843876330611
vertex -48.000000000000014 76 -83.13843876330611
endloop
endfacet
facet normal 0.8660254037844386 0 0.5000000000000001
outer loop
vertex 0 72 0
vertex 48.000000000000014 72 -83.13843876330611
vertex 48.000000000000014 76 -83.13843876330611
endloop
endfacet
facet normal 0.8660254037844386 0 0.5000000000000001
outer loop
vertex 0 72 0
vertex 48.000000000000014 76 -83.13843876330611
vertex 0 76 0
endloop
endfacet
facet normal -0.8660254037844386 0 -0.5000000000000002
outer loop
vertex -1.7320508075688772 72 -1.0000000000000002
vertex -1.7320508075688772 76 -1.0000000000000002
vertex 46.26794919243114 76 -84.13843876330611
endloop
endfacet
facet normal -0.8660254037844386 0 -0.5000000000000002
outer loop
vertex -1.7320508075688772 72 -1.0000000000000002
vertex 46.26794919243114 76 -84.13843876330611
vertex 46.26794919243114 72 -84.13843876330611
endloop
endfacet
facet normal 0 -1 0
outer loop
vertex 0 72 0
vertex -1.7320508075688772 72 -1.0000000000000002
vertex 46.26794919243114 72 -84.13843876330611
endloop
endfacet
facet normal 0 -1 0
outer loop
vertex 0 72 0
vertex 46.26794919243114 72 -84.13843876330611
vertex 48.000000000000014 72 -83.13843876330611
endloop
endfacet
facet normal 0 1 0
outer loop
vertex 0 76 0
vertex 48.000000000000014 76 -83.13843876330611
vertex 46.26794919243114 76 -84.13843876330611
endloop
endfacet
facet normal 0 1 0
outer loop
vertex 0 76 0
vertex 46.26794919243114 76 -84.13843876330611
vertex -1.7320508075688772 76 -1.0000000000000002
endloop
endfacet
facet normal -0.5000000000000001 0 0.8660254037844386
outer loop
vertex 0 72 0
vertex 0 76 0
vertex -1.7320508075688772 76 -1.0000000000000002
endloop
endfacet
facet normal -0.5000000000000001 0 0.8660254037844386
outer loop
vertex 0 72 0
vertex -1.7320508075688772 76 -1.0000000000000002
vertex -1.7320508075688772 72 -1.0000000000000002
endloop
endfacet
facet normal 0.499999999999999 0 -0.8660254037844393
outer loop
vertex 48.000000000000014 72 -83.13843876330611
vertex 46.26794919243114 72 -84.13843876330611
vertex 46.26794919243114 76 -84.13843876330611
endloop
endfacet
facet normal 0.499999999999999 0 -0.8660254037844393
outer loop
vertex 48.000000000000014 72 -83.13843876330611
vertex 46.26794919243114 76 -84.13843876330611
vertex 48.000000000000014 76 -83.13843876330611
endloop
endfacet
facet normal 0.8660254037844386 0 -0.5000000000000001
outer loop
vertex 0 96 0
vertex -48.000000000000014 96 -83.13843876330611
vertex -48.000000000000014 100 -83.13843876330611
endloop
endfacet
facet normal 0.8660254037844386 0 -0.5000000000000001
outer loop
vertex 0 96 0
vertex -48.000000000000014 100 -83.13843876330611
vertex 0 100 0
endloop
endfacet
facet normal -0.8660254037844385 0 0.5000000000000001
outer loop
vertex -1.7320508075688772 96 1.0000000000000002
vertex -1.7320508075688772 100 1.0000000000000002
vertex -49.73205080756889 100 -82.13843876330611
endloop
endfacet
facet normal -0.8660254037844385 0 0.5000000000000001
outer loop
vertex -1.7320508075688772 96 1.0000000000000002
vertex -49.73205080756889 100 -82.13843876330611
vertex -49.73205080756889 96 -82.13843876330611
endloop
endfacet
facet normal 0 -1 0
outer loop
vertex 0 96 0
vertex -1.7320508075688772 96 1.0000000000000002
vertex -49.73205080756889 96 -82.13843876330611
endloop
endfacet
facet normal 0 -1 0
outer loop
vertex 0 96 0
vertex -49.73205080756889 96 -82.13843876330611
vertex -48.000000000000014 96 -83.13843876330611
endloop
endfacet
facet normal 0 1 0
outer loop
vertex 0 100 0
vertex -48.000000000000014 100 -83.13843876330611
vertex -49.73205080756889 100 -82.13843876330611
endloop
endfacet
facet normal 0 1 0
outer loop
vertex 0 100 0
vertex -49.73205080756889 100 -82.13843876330611
vertex -1.7320508075688772 100 1.0000000000000002
endloop
endfacet
facet normal 0.5000000000000001 0 0.8660254037844386
outer loop
vertex 0 96 0
vertex 0 100 0
vertex -1.7320508075688772 100 1.0000000000000002
endloop
endfacet
facet normal 0.5000000000000001 0 0.8660254037844386
outer loop
vertex 0 96 0
vertex -1.7320508075688772 100 1.0000000000000002
vertex -1.7320508075688772 96 1.0000000000000002
endloop
endfacet
facet normal -0.499999999999999 0 -0.8660254037844393
outer loop
vertex -48.000000000000014 96 -83.13843876330611
vertex -49.73205080756889 96 -82.13843876330611
vertex -49.73205080756889 100 -82.13843876330611
endloop
endfacet
facet normal -0.499999999999999 0 -0.8660254037844393
outer loop
vertex -48.000000000000014 96 -83.13843876330611
vertex -49.73205080756889 100 -82.13843876330611
vertex -48.000000000000014 100 -83.13843876330611
endloop
endfacet
facet normal 0.8660254037844386 0 0.5000000000000001
outer loop
vertex 0 96 0
vertex 48.000000000000014 96 -83.13843876330611
vertex 48.000000000000014 100 -83.13843876330611
endloop
endfacet
facet normal 0.8660254037844386 0 0.5000000000000001
outer loop
vertex 0 96 0
vertex 48.000000000000014 100 -83.13843876330611
vertex 0 100 0
endloop
endfacet
facet normal -0.8660254037844386 0 -0.5000000000000002
outer loop
vertex -1.7320508075688772 96 -1.0000000000000002
vertex -1.7320508075688772 100 -1.0000000000000002
vertex 46.26794919243114 100 -84.13843876330611
endloop
endfacet
facet normal -0.8660254037844386 0 -0.5000000000000002
outer loop
vertex -1.7320508075688772 96 -1.0000000000000002
vertex 46.26794919243114 100 -84.13843876330611
vertex 46.26794919243114 96 -84.13843876330611
endloop
endfacet
facet normal 0 -1 0
outer loop
vertex 0 96 0
vertex -1.7320508075688772 96 -1.0000000000000002
vertex 46.26794919243114 96 -84.13843876330611
endloop
endfacet
facet normal 0 -1 0
outer loop
vertex 0 96 0
vertex 46.26794919243114 96 -84.13843876330611
vertex 48.000000000000014 96 -83.13843876330611
endloop
endfacet
facet normal 0 1 0
outer loop
vertex 0 100 0
vertex 48.000000000000014 100 -83.13843876330611
vertex 46.26794919243114 100 -84.13843876330611
endloop
endfacet
facet normal 0 1 0
outer loop
vertex 0 100 0
vertex 46.26794919243114 100 -84.13843876330611
vertex -1.7320508075688772 100 -1.0000000000000002
endloop
endfacet
facet normal -0.5000000000000001 0 0.8660254037844386
outer loop
vertex 0 96 0
vertex 0 100 0
vertex -1.7320508075688772 100 -1.0000000000000002
endloop
endfacet
facet normal -0.5000000000000001 0 0.8660254037844386
outer loop
vertex 0 96 0
vertex -1.7320508075688772 100 -1.0000000000000002
vertex -1.7320508075688772 96 -1.0000000000000002
endloop
endfacet
facet normal 0.499999999999999 0 -0.8660254037844393
outer loop
vertex 48.000000000000014 96 -83.13843876330611
vertex 46.26794919243114 96 -84.13843876330611
vertex 46.26794919243114 100 -84.13843876330611
endloop
endfacet
facet normal 0.499999999999999 0 -0.8660254037844393
outer loop
vertex 48.000000000000014 96 -83.13843876330611
vertex 46.26794919243114 100 -84.13843876330611
vertex 48.000000000000014 100 -83.13843876330611
endloop
endfacet
facet normal 0.8660254037844386 0 -0.5000000000000001
outer loop
vertex 0 120 0
vertex -48.000000000000014 120 -83.13843876330611
vertex -48.000000000000014 124 -83.13843876330611
endloop
endfacet
facet normal 0.8660254037844386 0 -0.5000000000000001
outer loop
vertex 0 120 0
vertex -48.000000000000014 124 -83.13843876330611
vertex 0 124 0
endloop
endfacet
facet normal -0.8660254037844385 0 0.5000000000000001
outer loop
vertex -1.7320508075688772 120 1.0000000000000002
vertex -1.7320508075688772 124 1.0000000000000002
vertex -49.73205080756889 124 -82.13843876330611
endloop
endfacet
facet normal -0.8660254037844385 0 0.5000000000000001
outer loop
vertex -1.7320508075688772 120 1.0000000000000002
vertex -49.73205080756889 124 -82.13843876330611
vertex -49.73205080756889 120 -82.13843876330611
endloop
endfacet
facet normal 0 -1 0
outer loop
vertex 0 120 0
vertex -1.7320508075688772 120 1.0000000000000002
vertex -49.73205080756889 120 -82.13843876330611
endloop
endfacet
facet normal 0 -1 0
outer loop
vertex 0 120 0
vertex -49.73205080756889 120 -82.13843876330611
vertex -48.000000000000014 120 -83.13843876330611
endloop
endfacet
facet normal 0 1 0
outer loop
vertex 0 124 0
vertex -48.000000000000014 124 -83.13843876330611
vertex -49.73205080756889 124 -82.13843876330611
endloop
endfacet
facet normal 0 1 0
outer loop
vertex 0 124 0
vertex -49.73205080756889 124 -82.13843876330611
vertex -1.7320508075688772 124 1.0000000000000002
endloop
endfacet
facet normal 0.5000000000000001 0 0.8660254037844386
outer loop
vertex 0 120 0
vertex 0 124 0
vertex -1.7320508075688772 124 1.0000000000000002
endloop
endfacet
facet normal 0.5000000000000001 0 0.8660254037844386
outer loop
vertex 0 120 0
vertex -1.7320508075688772 124 1.0000000000000002
vertex -1.7320508075688772 120 1.0000000000000002
endloop
endfacet
facet normal -0.499999999999999 0 -0.8660254037844393
outer loop
vertex -48.000000000000014 120 -83.13843876330611
vertex -49.73205080756889 120 -82.13843876330611
vertex -49.73205080756889 124 -82.13843876330611
endloop
endfacet
facet normal -0.499999999999999 0 -0.8660254037844393
outer loop
vertex -48.000000000000014 120 -83.13843876330611
vertex -49.73205080756889 124 -82.13843876330611
vertex -48.000000000000014 124 -83.13843876330611
endloop
endfacet
facet normal 0.8660254037844386 0 0.5000000000000001
outer loop
vertex 0 120 0
vertex 48.000000000000014 120 -83.13843876330611
vertex 48.000000000000014 124 -83.13843876330611
endloop
endfacet
facet normal 0.8660254037844386 0 0.5000000000000001
outer loop
vertex 0 120 0
vertex 48.000000000000014 124 -83.13843876330611
vertex 0 124 0
endloop
endfacet
facet normal -0.8660254037844386 0 -0.5000000000000002
outer loop
vertex -1.7320508075688772 120 -1.0000000000000002
vertex -1.7320508075688772 124 -1.0000000000000002
vertex 46.26794919243114 124 -84.13843876330611
endloop
endfacet
facet normal -0.8660254037844386 0 -0.5000000000000002
outer loop
vertex -1.7320508075688772 120 -1.0000000000000002
vertex 46.26794919243114 124 -84.13843876330611
vertex 46.26794919243114 120 -84.13843876330611
endloop
endfacet
facet normal 0 -1 0
outer loop
vertex 0 120 0
vertex -1.7320508075688772 120 -1.0000000000000002
vertex 46.26794919243114 120 -84.13843876330611
endloop
endfacet
facet normal 0 -1 0
outer loop
vertex 0 120 0
vertex 46.26794919243114 120 -84.13843876330611
vertex 48.000000000000014 120 -83.13843876330611
endloop
endfacet
facet normal 0 1 0
outer loop
vertex 0 124 0
vertex 48.000000000000014 124 -83.13843876330611
vertex 46.26794919243114 124 -84.13843876330611
endloop
endfacet
facet normal 0 1 0
outer loop
vertex 0 124 0
vertex 46.26794919243114 124 -84.13843876330611
vertex -1.7320508075688772 124 -1.0000000000000002
endloop
endfacet
facet normal -0.5000000000000001 0 0.8660254037844386
outer loop
vertex 0 120 0
vertex 0 124 0
vertex -1.7320508075688772 124 -1.0000000000000002
endloop
endfacet
facet normal -0.5000000000000001 0 0.8660254037844386
outer loop
vertex 0 120 0
vertex -1.7320508075688772 124 -1.0000000000000002
vertex -1.7320508075688772 120 -1.0000000000000002
endloop
endfacet
facet normal 0.499999999999999 0 -0.8660254037844393
outer loop
vertex 48.000000000000014 120 -83.13843876330611
vertex 46.26794919243114 120 -84.13843876330611
vertex 46.26794919243114 124 -84.13843876330611
endloop
endfacet
facet normal 0.499999999999999 0 -0.8660254037844393
outer loop
vertex 48.000000000000014 120 -83.13843876330611
vertex 46.26794919243114 124 -84.13843876330611
vertex 48.000000000000014 124 -83.13843876330611
endloop
endfacet
facet normal 0.8660254037844386 0 -0.5000000000000001
outer loop
vertex 0 144 0
vertex -48.000000000000014 144 -83.13843876330611
vertex -48.000000000000014 148 -83.13843876330611
endloop
endfacet
facet normal 0.8660254037844386 0 -0.5000000000000001
outer loop
vertex 0 144 0
vertex -48.000000000000014 148 -83.13843876330611
vertex 0 148 0
endloop
endfacet
facet normal -0.8660254037844385 0 0.5000000000000001
outer loop
vertex -1.7320508075688772 144 1.0000000000000002
vertex -1.7320508075688772 148 1.0000000000000002
vertex -49.73205080756889 148 -82.13843876330611
endloop
endfacet
facet normal -0.8660254037844385 0 0.5000000000000001
outer loop
vertex -1.7320508075688772 144 1.0000000000000002
vertex -49.73205080756889 148 -82.13843876330611
vertex -49.73205080756889 144 -82.13843876330611
endloop
endfacet
facet normal 0 -1 0
outer loop
vertex 0 144 0
vertex -1.7320508075688772 144 1.0000000000000002
vertex -49.73205080756889 144 -82.13843876330611
endloop
endfacet
facet normal 0 -1 0
outer loop
vertex 0 144 0
vertex -49.73205080756889 144 -82.13843876330611
vertex -48.000000000000014 144 -83.13843876330611
endloop
endfacet
facet normal 0 1 0
outer loop
vertex 0 148 0
vertex -48.000000000000014 148 -83.13843876330611
vertex -49.73205080756889 148 -82.13843876330611
endloop
endfacet
facet normal 0 1 0
outer loop
vertex 0 148 0
vertex -49.73205080756889 148 -82.13843876330611
vertex -1.7320508075688772 148 1.0000000000000002
endloop
endfacet
facet normal 0.5000000000000001 0 0.8660254037844386
outer loop
vertex 0 144 0
vertex 0 148 0
vertex -1.7320508075688772 148 1.0000000000000002
endloop
endfacet
facet normal 0.5000000000000001 0 0.8660254037844386
outer loop
vertex 0 144 0
vertex -1.7320508075688772 148 1.0000000000000002
vertex -1.7320508075688772 144 1.0000000000000002
endloop
endfacet
facet normal -0.499999999999999 0 -0.8660254037844393
outer loop
vertex -48.000000000000014 144 -83.13843876330611
vertex -49.73205080756889 144 -82.13843876330611
vertex -49.73205080756889 148 -82.13843876330611
endloop
endfacet
facet normal -0.499999999999999 0 -0.8660254037844393
outer loop
vertex -48.000000000000014 144 -83.13843876330611
vertex -49.73205080756889 148 -82.13843876330611
vertex -48.000000000000014 148 -83.13843876330611
endloop
endfacet
facet normal 0.8660254037844386 0 0.5000000000000001
outer loop
vertex 0 144 0
vertex 48.000000000000014 144 -83.13843876330611
vertex 48.000000000000014 148 -83.13843876330611
endloop
endfacet
facet normal 0.8660254037844386 0 0.5000000000000001
outer loop
vertex 0 144 0
vertex 48.000000000000014 148 -83.13843876330611
vertex 0 148 0
endloop
endfacet
facet normal -0.8660254037844386 0 -0.5000000000000002
outer loop
vertex -1.7320508075688772 144 -1.0000000000000002
vertex -1.7320508075688772 148 -1.0000000000000002
vertex 46.26794919243114 148 -84.13843876330611
endloop
endfacet
facet normal -0.8660254037844386 0 -0.5000000000000002
outer loop
vertex -1.7320508075688772 144 -1.0000000000000002
vertex 46.26794919243114 148 -84.13843876330611
vertex 46.26794919243114 144 -84.13843876330611
endloop
endfacet
facet normal 0 -1 0
outer loop
vertex 0 144 0
vertex -1.7320508075688772 144 -1.0000000000000002
vertex 46.26794919243114 144 -84.13843876330611
endloop
endfacet
facet normal 0 -1 0
outer loop
vertex 0 144 0
vertex 46.26794919243114 144 -84.13843876330611
vertex 48.000000000000014 144 -83.13843876330611
endloop
endfacet
facet normal 0 1 0
outer loop
vertex 0 148 0
vertex 48.000000000000014 148 -83.13843876330611
vertex 46.26794919243114 148 -84.13843876330611
endloop
endfacet
facet normal 0 1 0
outer loop
vertex 0 148 0
vertex 46.26794919243114 148 -84.13843876330611
vertex -1.7320508075688772 148 -1.0000000000000002
endloop
endfacet
facet normal -0.5000000000000001 0 0.8660254037844386
outer loop
vertex 0 144 0
vertex 0 148 0
vertex -1.7320508075688772 148 -1.0000000000000002
endloop
endfacet
facet normal -0.5000000000000001 0 0.8660254037844386
outer loop
vertex 0 144 0
vertex -1.7320508075688772 148 -1.0000000000000002
vertex -1.7320508075688772 144 -1.0000000000000002
endloop
endfacet
facet normal 0.499999999999999 0 -0.8660254037844393
outer loop
vertex 48.000000000000014 144 -83.13843876330611
vertex 46.26794919243114 144 -84.13843876330611
vertex 46.26794919243114 148 -84.13843876330611
endloop
endfacet
facet normal 0.499999999999999 0 -0.8660254037844393
outer loop
vertex 48.000000000000014 144 -83.13843876330611
vertex 46.26794919243114 148 -84.13843876330611
vertex 48.000000000000014 148 -83.13843876330611
endloop
endfacet
facet normal 0.8660254037844386 0 -0.5000000000000001
outer loop
vertex 0 168 0
vertex -48.000000000000014 168 -83.13843876330611
vertex -48.000000000000014 172 -83.13843876330611
endloop
endfacet
facet normal 0.8660254037844386 0 -0.5000000000000001
outer loop
vertex 0 168 0
vertex -48.000000000000014 172 -83.13843876330611
vertex 0 172 0
endloop
endfacet
facet normal -0.8660254037844385 0 0.5000000000000001
outer loop
vertex -1.7320508075688772 168 1.0000000000000002
vertex -1.7320508075688772 172 1.0000000000000002
vertex -49.73205080756889 172 -82.13843876330611
endloop
endfacet
facet normal -0.8660254037844385 0 0.5000000000000001
outer loop
vertex -1.7320508075688772 168 1.0000000000000002
vertex -49.73205080756889 172 -82.13843876330611
vertex -49.73205080756889 168 -82.13843876330611
endloop
endfacet
facet normal 0 -1 0
outer loop
vertex 0 168 0
vertex -1.7320508075688772 168 1.0000000000000002
vertex -49.73205080756889 168 -82.13843876330611
endloop
endfacet
facet normal 0 -1 0
outer loop
vertex 0 168 0
vertex -49.73205080756889 168 -82.13843876330611
vertex -48.000000000000014 168 -83.13843876330611
endloop
endfacet
facet normal 0 1 0
outer loop
vertex 0 172 0
vertex -48.000000000000014 172 -83.13843876330611
vertex -49.73205080756889 172 -82.13843876330611
endloop
endfacet
facet normal 0 1 0
outer loop
vertex 0 172 0
vertex -49.73205080756889 172 -82.13843876330611
vertex -1.7320508075688772 172 1.0000000000000002
endloop
endfacet
facet normal 0.5000000000000001 0 0.8660254037844386
outer loop
vertex 0 168 0
vertex 0 172 0
vertex -1.7320508075688772 172 1.0000000000000002
endloop
endfacet
facet normal 0.5000000000000001 0 0.8660254037844386
outer loop
vertex 0 168 0
vertex -1.7320508075688772 172 1.0000000000000002
vertex -1.7320508075688772 168 1.0000000000000002
endloop
endfacet
facet normal -0.499999999999999 0 -0.8660254037844393
outer loop
vertex -48.000000000000014 168 -83.13843876330611
vertex -49.73205080756889 168 -82.13843876330611
vertex -49.73205080756889 172 -82.13843876330611
endloop
endfacet
facet normal -0.499999999999999 0 -0.8660254037844393
outer loop
vertex -48.000000000000014 168 -83.13843876330611
vertex -49.73205080756889 172 -82.13843876330611
vertex -48.000000000000014 172 -83.13843876330611
endloop
endfacet
facet normal 0.8660254037844386 0 0.5000000000000001
outer loop
vertex 0 168 0
vertex 48.000000000000014 168 -83.13843876330611
vertex 48.000000000000014 172 -83.13843876330611
endloop
endfacet
facet normal 0.8660254037844386 0 0.5000000000000001
outer loop
vertex 0 168 0
vertex 48.000000000000014 172 -83.13843876330611
vertex 0 172 0
endloop
endfacet
facet normal -0.8660254037844386 0 -0.5000000000000002
outer loop
vertex -1.7320508075688772 168 -1.0000000000000002
vertex -1.7320508075688772 172 -1.0000000000000002
vertex 46.26794919243114 172 -84.13843876330611
endloop
endfacet
facet normal -0.8660254037844386 0 -0.5000000000000002
outer loop
vertex -1.7320508075688772 168 -1.0000000000000002
vertex 46.26794919243114 172 -84.13843876330611
vertex 46.26794919243114 168 -84.13843876330611
endloop
endfacet
facet normal 0 -1 0
outer loop
vertex 0 168 0
vertex -1.7320508075688772 168 -1.0000000000000002
vertex 46.26794919243114 168 -84.13843876330611
endloop
endfacet
facet normal 0 -1 0
outer loop
vertex 0 168 0
vertex 46.26794919243114 168 -84.13843876330611
vertex 48.000000000000014 168 -83.13843876330611
endloop
endfacet
facet normal 0 1 0
outer loop
vertex 0 172 0
vertex 48.000000000000014 172 -83.13843876330611
vertex 46.26794919243114 172 -84.13843876330611
endloop
endfacet
facet normal 0 1 0
outer loop
vertex 0 172 0
vertex 46.26794919243114 172 -84.13843876330611
vertex -1.7320508075688772 172 -1.0000000000000002
endloop
endfacet
facet normal -0.5000000000000001 0 0.8660254037844386
outer loop
vertex 0 168 0
vertex 0 172 0
vertex -1.7320508075688772 172 -1.0000000000000002
endloop
endfacet
facet normal -0.5000000000000001 0 0.8660254037844386
outer loop
vertex 0 168 0
vertex -1.7320508075688772 172 -1.0000000000000002
vertex -1.7320508075688772 168 -1.0000000000000002
endloop
endfacet
facet normal 0.499999999999999 0 -0.8660254037844393
outer loop
vertex 48.000000000000014 168 -83.13843876330611
vertex 46.26794919243114 168 -84.13843876330611
vertex 46.26794919243114 172 -84.13843876330611
endloop
endfacet
facet normal 0.499999999999999 0 -0.8660254037844393
outer loop
vertex 48.000000000000014 168 -83.13843876330611
vertex 46.26794919243114 172 -84.13843876330611
vertex 48.000000000000014 172 -83.13843876330611
endloop
endfacet
endsolid csg.js
