solid csg.js
facet normal 0.577350269189626 -0.5773502691896256 0.5773502691896257
outer loop
vertex -27.88675134594813 -2.886751345948129 2.8867513459481287
vertex -22.11324865405187 -2.8867513459481287 -2.8867513459481287
vertex -22.11324865405187 2.8867513459481287 2.8867513459481287
endloop
endfacet
facet normal -0.5773502691896255 0.5773502691896256 0.577350269189626
outer loop
vertex -27.88675134594813 2.886751345948129 -2.8867513459481287
vertex -27.88675134594813 -2.886751345948129 2.8867513459481287
vertex -22.11324865405187 2.8867513459481287 2.8867513459481287
endloop
endfacet
facet normal -0.5773502691896255 -0.5773502691896256 -0.577350269189626
outer loop
vertex -22.11324865405187 -2.8867513459481287 -2.8867513459481287
vertex -27.88675134594813 -2.886751345948129 2.8867513459481287
vertex -27.88675134594813 2.886751345948129 -2.8867513459481287
endloop
endfacet
facet normal 0.5773502691896258 0.5773502691896258 -0.5773502691896256
outer loop
vertex -22.11324865405187 -2.8867513459481287 -2.8867513459481287
vertex -27.88675134594813 2.886751345948129 -2.8867513459481287
vertex -22.11324865405187 2.8867513459481287 2.8867513459481287
endloop
endfacet
facet normal 0 0 1
outer loop
vertex -17.886751345948127 2.886751345948129 2.8867513459481287
vertex -17.886751345948127 -2.886751345948129 2.8867513459481287
vertex -12.113248654051871 -2.8867513459481287 2.8867513459481287
endloop
endfacet
facet normal 0 0 1
outer loop
vertex -17.886751345948127 2.886751345948129 2.8867513459481287
vertex -12.113248654051871 -2.8867513459481287 2.8867513459481287
vertex -12.113248654051871 2.8867513459481287 2.8867513459481287
endloop
endfacet
facet normal 8.881784197001253e-17 1 0
outer loop
vertex -12.113248654051871 2.8867513459481287 -2.8867513459481287
vertex -17.886751345948127 2.886751345948129 -2.8867513459481287
vertex -17.886751345948127 2.886751345948129 2.8867513459481287
endloop
endfacet
facet normal 8.881784197001253e-17 1 0
outer loop
vertex -12.113248654051871 2.8867513459481287 -2.8867513459481287
vertex -17.886751345948127 2.886751345948129 2.8867513459481287
vertex -12.113248654051871 2.8867513459481287 2.8867513459481287
endloop
endfacet
facet normal -1 0 0
outer loop
vertex -17.886751345948127 2.886751345948129 -2.8867513459481287
vertex -17.886751345948127 -2.886751345948129 -2.8867513459481287
vertex -17.886751345948127 -2.886751345948129 2.8867513459481287
endloop
endfacet
facet normal -1 0 0
outer loop
vertex -17.886751345948127 2.886751345948129 -2.8867513459481287
vertex -17.886751345948127 -2.886751345948129 2.8867513459481287
vertex -17.886751345948127 2.886751345948129 2.8867513459481287
endloop
endfacet
facet normal 1.7763568394002508e-16 -1 0
outer loop
vertex -17.886751345948127 -2.886751345948129 -2.8867513459481287
vertex -12.113248654051871 -2.8867513459481287 -2.8867513459481287
vertex -12.113248654051871 -2.8867513459481287 2.8867513459481287
endloop
endfacet
facet normal 1.7763568394002508e-16 -1 0
outer loop
vertex -17.886751345948127 -2.886751345948129 -2.8867513459481287
vertex -12.113248654051871 -2.8867513459481287 2.8867513459481287
vertex -17.886751345948127 -2.886751345948129 2.8867513459481287
endloop
endfacet
facet normal 1 0 0
outer loop
vertex -12.113248654051871 -2.8867513459481287 -2.8867513459481287
vertex -12.113248654051871 2.8867513459481287 -2.8867513459481287
vertex -12.113248654051871 2.8867513459481287 2.8867513459481287
endloop
endfacet
facet normal 1 0 0
outer loop
vertex -12.113248654051871 -2.8867513459481287 -2.8867513459481287
vertex -12.113248654051871 2.8867513459481287 2.8867513459481287
vertex -12.113248654051871 -2.8867513459481287 2.8867513459481287
endloop
endfacet
facet normal 0 0 -1
outer loop
vertex -12.113248654051871 -2.8867513459481287 -2.8867513459481287
vertex -17.886751345948127 -2.886751345948129 -2.8867513459481287
vertex -17.886751345948127 2.886751345948129 -2.8867513459481287
endloop
endfacet
facet normal 0 0 -1
outer loop
vertex -12.113248654051871 -2.8867513459481287 -2.8867513459481287
vertex -17.886751345948127 2.886751345948129 -2.8867513459481287
vertex -12.113248654051871 2.8867513459481287 -2.8867513459481287
endloop
endfacet
facet normal 0.5773502691896257 0.5773502691896257 0.5773502691896256
outer loop
vertex 0 0 0
vertex -5 5 0
vertex -5 0 5
endloop
endfacet
facet normal 0.5773502691896257 -0.5773502691896256 0.5773502691896257
outer loop
vertex -5 -5 0
vertex 0 0 0
vertex -5 0 5
endloop
endfacet
facet normal -0.5773502691896261 -0.5773502691896256 0.5773502691896256
outer loop
vertex -10 0 0
vertex -5 -5 0
vertex -5 0 5
endloop
endfacet
facet normal -0.577350269189626 0.5773502691896257 0.5773502691896256
outer loop
vertex -5 5 0
vertex -10 0 0
vertex -5 0 5
endloop
endfacet
facet normal 0.5773502691896257 0.5773502691896256 -0.5773502691896257
outer loop
vertex -5 5 0
vertex 0 0 0
vertex -5 0 -5
endloop
endfacet
facet normal 0.5773502691896257 -0.5773502691896257 -0.5773502691896256
outer loop
vertex 0 0 0
vertex -5 -5 0
vertex -5 0 -5
endloop
endfacet
facet normal -0.5773502691896261 -0.5773502691896257 -0.5773502691896256
outer loop
vertex -5 -5 0
vertex -10 0 0
vertex -5 0 -5
endloop
endfacet
facet normal -0.5773502691896258 0.5773502691896256 -0.5773502691896258
outer loop
vertex -10 0 0
vertex -5 5 0
vertex -5 0 -5
endloop
endfacet
facet normal 0.5257311123150784 0 0.8506508082309393
outer loop
vertex 5 1.7841104464596211 4.670861795732523
vertex 5 -1.7841104464596211 4.670861795732523
vertex 7.886751345948129 -2.8867513459481287 2.8867513459481287
endloop
endfacet
facet normal 0.5257311123150784 0 0.8506508082309394
outer loop
vertex 7.886751345948129 2.8867513459481287 2.8867513459481287
vertex 5 1.7841104464596211 4.670861795732523
vertex 7.886751345948129 -2.8867513459481287 2.8867513459481287
endloop
endfacet
facet normal 0.5257311127532244 0 0.8506508079601502
outer loop
vertex 9.670861795732524 0 1.7841104464596214
vertex 7.886751345948129 2.8867513459481287 2.8867513459481287
vertex 7.886751345948129 -2.8867513459481287 2.8867513459481287
endloop
endfacet
facet normal -3.0275144335107045e-10 -0.8506508081792231 0.5257311123987568
outer loop
vertex 6.784110446459621 -4.670861795732523 0
vertex 7.886751345948129 -2.8867513459481287 2.8867513459481287
vertex 5 -1.7841104464596211 4.670861795732523
endloop
endfacet
facet normal -1.222472719151162e-16 -0.850650808127507 0.5257311124824353
outer loop
vertex 3.215889553540378 -4.670861795732523 0
vertex 6.784110446459621 -4.670861795732523 0
vertex 5 -1.7841104464596211 4.670861795732523
endloop
endfacet
facet normal 3.0275168784561434e-10 -0.8506508081792232 0.5257311123987569
outer loop
vertex 2.1132486540518713 -2.886751345948129 2.8867513459481287
vertex 3.215889553540378 -4.670861795732523 0
vertex 5 -1.7841104464596211 4.670861795732523
endloop
endfacet
facet normal -0.525731112398757 3.0275130667446547e-10 0.8506508081792232
outer loop
vertex 0.32913820426747675 0 1.7841104464596214
vertex 2.1132486540518713 -2.886751345948129 2.8867513459481287
vertex 5 -1.7841104464596211 4.670861795732523
endloop
endfacet
facet normal -0.5257311125341514 -1.8711060933683823e-10 0.8506508080955448
outer loop
vertex 2.1132486540518713 2.886751345948129 2.8867513459481287
vertex 0.32913820426747675 0 1.7841104464596214
vertex 5 -1.7841104464596211 4.670861795732523
endloop
endfacet
facet normal -0.5257311123150786 0 0.8506508082309392
outer loop
vertex 5 1.7841104464596211 4.670861795732523
vertex 2.1132486540518713 2.886751345948129 2.8867513459481287
vertex 5 -1.7841104464596211 4.670861795732523
endloop
endfacet
facet normal 3.027516878456144e-10 0.8506508081792231 0.5257311123987571
outer loop
vertex 3.215889553540378 4.670861795732523 0
vertex 2.1132486540518713 2.886751345948129 2.8867513459481287
vertex 5 1.7841104464596211 4.670861795732523
endloop
endfacet
facet normal -7.555296904793237e-17 0.850650808127507 0.5257311124824355
outer loop
vertex 6.784110446459621 4.670861795732523 0
vertex 3.215889553540378 4.670861795732523 0
vertex 5 1.7841104464596211 4.670861795732523
endloop
endfacet
facet normal -3.027513677981014e-10 0.8506508081792232 0.525731112398757
outer loop
vertex 7.886751345948129 2.8867513459481287 2.8867513459481287
vertex 6.784110446459621 4.670861795732523 0
vertex 5 1.7841104464596211 4.670861795732523
endloop
endfacet
facet normal 0.85065080796015 0.5257311127532247 0
outer loop
vertex 7.886751345948129 2.8867513459481287 -2.8867513459481287
vertex 6.784110446459621 4.670861795732523 0
vertex 7.886751345948129 2.8867513459481287 2.8867513459481287
endloop
endfacet
facet normal 0.8506508082309392 0.5257311123150786 0
outer loop
vertex 9.670861795732522 0 -1.7841104464596218
vertex 7.886751345948129 2.8867513459481287 -2.8867513459481287
vertex 7.886751345948129 2.8867513459481287 2.8867513459481287
endloop
endfacet
facet normal 0.8506508082309394 0.5257311123150784 -2.444945438188771e-16
outer loop
vertex 9.670861795732524 0 1.7841104464596214
vertex 9.670861795732522 0 -1.7841104464596218
vertex 7.886751345948129 2.8867513459481287 2.8867513459481287
endloop
endfacet
facet normal 0.8506508082309393 -0.5257311123150785 -1.5110593811423794e-16
outer loop
vertex 9.670861795732522 0 -1.7841104464596218
vertex 9.670861795732524 0 1.7841104464596214
vertex 7.886751345948129 -2.8867513459481287 2.8867513459481287
endloop
endfacet
facet normal 0.8506508082309395 -0.5257311123150782 0
outer loop
vertex 7.886751345948129 -2.8867513459481287 -2.8867513459481287
vertex 9.670861795732522 0 -1.7841104464596218
vertex 7.886751345948129 -2.8867513459481287 2.8867513459481287
endloop
endfacet
facet normal 0.8506508079601504 -0.5257311127532244 0
outer loop
vertex 6.784110446459621 -4.670861795732523 0
vertex 7.886751345948129 -2.8867513459481287 -2.8867513459481287
vertex 7.886751345948129 -2.8867513459481287 2.8867513459481287
endloop
endfacet
facet normal -1.2224727190943857e-16 -0.8506508082309393 -0.5257311123150786
outer loop
vertex 7.886751345948129 -2.8867513459481287 -2.8867513459481287
vertex 6.784110446459621 -4.670861795732523 0
vertex 3.215889553540378 -4.670861795732523 0
endloop
endfacet
facet normal -1.8711071099271612e-10 -0.8506508080955446 -0.5257311125341518
outer loop
vertex 5 -1.7841104464596205 -4.670861795732523
vertex 7.886751345948129 -2.8867513459481287 -2.8867513459481287
vertex 3.215889553540378 -4.670861795732523 0
endloop
endfacet
facet normal 3.0275188564585516e-10 -0.8506508081792231 -0.5257311123987569
outer loop
vertex 2.1132486540518713 -2.886751345948129 -2.8867513459481287
vertex 5 -1.7841104464596205 -4.670861795732523
vertex 3.215889553540378 -4.670861795732523 0
endloop
endfacet
facet normal -0.8506508079601502 -0.5257311127532243 0
outer loop
vertex 2.1132486540518713 -2.886751345948129 -2.8867513459481287
vertex 3.215889553540378 -4.670861795732523 0
vertex 2.1132486540518713 -2.886751345948129 2.8867513459481287
endloop
endfacet
facet normal -0.8506508082309394 -0.5257311123150784 0
outer loop
vertex 0.3291382042674773 0 -1.7841104464596218
vertex 2.1132486540518713 -2.886751345948129 -2.8867513459481287
vertex 2.1132486540518713 -2.886751345948129 2.8867513459481287
endloop
endfacet
facet normal -0.8506508082309394 -0.5257311123150784 -1.2473987789456848e-16
outer loop
vertex 0.32913820426747675 0 1.7841104464596214
vertex 0.3291382042674773 0 -1.7841104464596218
vertex 2.1132486540518713 -2.886751345948129 2.8867513459481287
endloop
endfacet
facet normal -0.8506508082309395 0.5257311123150782 -1.5418696858145812e-16
outer loop
vertex 2.1132486540518713 2.886751345948129 -2.8867513459481287
vertex 0.3291382042674773 0 -1.7841104464596218
vertex 0.32913820426747675 0 1.7841104464596214
endloop
endfacet
facet normal -0.8506508080955448 0.5257311125341514 1.8711073115832222e-10
outer loop
vertex 3.215889553540378 4.670861795732523 0
vertex 2.1132486540518713 2.886751345948129 -2.8867513459481287
vertex 0.32913820426747675 0 1.7841104464596214
endloop
endfacet
facet normal -0.8506508081792232 0.5257311123987569 -3.0275144558052506e-10
outer loop
vertex 2.1132486540518713 2.886751345948129 2.8867513459481287
vertex 3.215889553540378 4.670861795732523 0
vertex 0.32913820426747675 0 1.7841104464596214
endloop
endfacet
facet normal 3.0275183895155244e-10 0.8506508081792232 -0.5257311123987569
outer loop
vertex 5 1.7841104464596205 -4.670861795732523
vertex 2.1132486540518713 2.886751345948129 -2.8867513459481287
vertex 3.215889553540378 4.670861795732523 0
endloop
endfacet
facet normal -1.8711087993429092e-10 0.8506508080955447 -0.5257311125341516
outer loop
vertex 7.886751345948129 2.8867513459481287 -2.8867513459481287
vertex 5 1.7841104464596205 -4.670861795732523
vertex 3.215889553540378 4.670861795732523 0
endloop
endfacet
facet normal -1.9780024096655755e-16 0.8506508082309392 -0.5257311123150785
outer loop
vertex 6.784110446459621 4.670861795732523 0
vertex 7.886751345948129 2.8867513459481287 -2.8867513459481287
vertex 3.215889553540378 4.670861795732523 0
endloop
endfacet
facet normal 0.5257311123987568 -3.0275132110379855e-10 -0.8506508081792232
outer loop
vertex 5 1.7841104464596205 -4.670861795732523
vertex 7.886751345948129 2.8867513459481287 -2.8867513459481287
vertex 9.670861795732522 0 -1.7841104464596218
endloop
endfacet
facet normal 0.5257311124824352 0 -0.8506508081275072
outer loop
vertex 5 -1.7841104464596205 -4.670861795732523
vertex 5 1.7841104464596205 -4.670861795732523
vertex 9.670861795732522 0 -1.7841104464596218
endloop
endfacet
facet normal 0.5257311123987568 3.027515189040395e-10 -0.8506508081792233
outer loop
vertex 7.886751345948129 -2.8867513459481287 -2.8867513459481287
vertex 5 -1.7841104464596205 -4.670861795732523
vertex 9.670861795732522 0 -1.7841104464596218
endloop
endfacet
facet normal -0.5257311123987568 3.0275130667446537e-10 -0.8506508081792231
outer loop
vertex 5 -1.7841104464596205 -4.670861795732523
vertex 2.1132486540518713 -2.886751345948129 -2.8867513459481287
vertex 0.3291382042674773 0 -1.7841104464596218
endloop
endfacet
facet normal -0.5257311124824355 0 -0.850650808127507
outer loop
vertex 5 1.7841104464596205 -4.670861795732523
vertex 5 -1.7841104464596205 -4.670861795732523
vertex 0.3291382042674773 0 -1.7841104464596218
endloop
endfacet
facet normal -0.5257311123987569 -3.027513444509499e-10 -0.8506508081792231
outer loop
vertex 2.1132486540518713 2.886751345948129 -2.8867513459481287
vertex 5 1.7841104464596205 -4.670861795732523
vertex 0.3291382042674773 0 -1.7841104464596218
endloop
endfacet
facet normal 0.3568220901623612 0 0.9341723588140273
outer loop
vertex 19.253254042668452 0 2.6286555591260816
vertex 15 2.628655559126081 4.253254042668454
vertex 15 -2.628655559126081 4.253254042668454
endloop
endfacet
facet normal 0.5773502691896256 -0.5773502691896257 0.577350269189626
outer loop
vertex 17.62865555912608 -4.253254042668454 0
vertex 19.253254042668452 0 2.6286555591260816
vertex 15 -2.628655559126081 4.253254042668454
endloop
endfacet
facet normal 9.881725694562319e-17 -0.9341723588140274 0.3568220901623611
outer loop
vertex 12.37134444087392 -4.253254042668455 0
vertex 17.62865555912608 -4.253254042668454 0
vertex 15 -2.628655559126081 4.253254042668454
endloop
endfacet
facet normal -0.5773502691896256 -0.5773502691896257 0.5773502691896258
outer loop
vertex 10.746745957331548 0 2.6286555591260816
vertex 12.37134444087392 -4.253254042668455 0
vertex 15 -2.628655559126081 4.253254042668454
endloop
endfacet
facet normal -0.35682209016236105 0 0.9341723588140274
outer loop
vertex 15 2.628655559126081 4.253254042668454
vertex 10.746745957331548 0 2.6286555591260816
vertex 15 -2.628655559126081 4.253254042668454
endloop
endfacet
facet normal 0.5773502691896256 0.5773502691896257 0.577350269189626
outer loop
vertex 19.253254042668452 0 2.6286555591260816
vertex 17.62865555912608 4.253254042668454 0
vertex 15 2.628655559126081 4.253254042668454
endloop
endfacet
facet normal -0.5773502691896256 0.5773502691896258 0.5773502691896257
outer loop
vertex 12.37134444087392 4.253254042668455 0
vertex 10.746745957331548 0 2.6286555591260816
vertex 15 2.628655559126081 4.253254042668454
endloop
endfacet
facet normal 1.1466334095334828e-16 0.9341723588140273 0.3568220901623612
outer loop
vertex 17.62865555912608 4.253254042668454 0
vertex 12.37134444087392 4.253254042668455 0
vertex 15 2.628655559126081 4.253254042668454
endloop
endfacet
facet normal 0.9341723588140276 0.35682209016236044 0
outer loop
vertex 19.253254042668456 0 -2.628655559126081
vertex 17.62865555912608 4.253254042668454 0
vertex 19.253254042668452 0 2.6286555591260816
endloop
endfacet
facet normal 0.9341723588140272 -0.3568220901623615 0
outer loop
vertex 17.62865555912608 -4.253254042668454 0
vertex 19.253254042668456 0 -2.628655559126081
vertex 19.253254042668452 0 2.6286555591260816
endloop
endfacet
facet normal -0.9341723588140273 -0.3568220901623612 3.952690277824928e-16
outer loop
vertex 10.746745957331544 0 -2.628655559126081
vertex 12.37134444087392 -4.253254042668455 0
vertex 10.746745957331548 0 2.6286555591260816
endloop
endfacet
facet normal -0.9341723588140273 0.3568220901623612 0
outer loop
vertex 12.37134444087392 4.253254042668455 0
vertex 10.746745957331544 0 -2.628655559126081
vertex 10.746745957331548 0 2.6286555591260816
endloop
endfacet
facet normal 0.5773502691896255 -0.5773502691896257 -0.5773502691896261
outer loop
vertex 15 -2.6286555591260834 -4.253254042668453
vertex 19.253254042668456 0 -2.628655559126081
vertex 17.62865555912608 -4.253254042668454 0
endloop
endfacet
facet normal 1.8178842988352134e-16 -0.9341723588140275 -0.35682209016236094
outer loop
vertex 12.37134444087392 -4.253254042668455 0
vertex 15 -2.6286555591260834 -4.253254042668453
vertex 17.62865555912608 -4.253254042668454 0
endloop
endfacet
facet normal -0.5773502691896256 -0.5773502691896258 -0.5773502691896258
outer loop
vertex 12.37134444087392 -4.253254042668455 0
vertex 10.746745957331544 0 -2.628655559126081
vertex 15 -2.6286555591260834 -4.253254042668453
endloop
endfacet
facet normal 0.5773502691896262 0.5773502691896261 -0.5773502691896251
outer loop
vertex 17.62865555912608 4.253254042668454 0
vertex 19.253254042668456 0 -2.628655559126081
vertex 15 2.6286555591260834 -4.253254042668453
endloop
endfacet
facet normal 1.8178842988352131e-16 0.9341723588140275 -0.35682209016236077
outer loop
vertex 12.37134444087392 4.253254042668455 0
vertex 17.62865555912608 4.253254042668454 0
vertex 15 2.6286555591260834 -4.253254042668453
endloop
endfacet
facet normal -0.577350269189626 0.5773502691896257 -0.5773502691896253
outer loop
vertex 10.746745957331544 0 -2.628655559126081
vertex 12.37134444087392 4.253254042668455 0
vertex 15 2.6286555591260834 -4.253254042668453
endloop
endfacet
facet normal 0.3568220901623611 0 -0.9341723588140274
outer loop
vertex 15 -2.6286555591260834 -4.253254042668453
vertex 15 2.6286555591260834 -4.253254042668453
vertex 19.253254042668456 0 -2.628655559126081
endloop
endfacet
facet normal -0.3568220901623608 0 -0.9341723588140275
outer loop
vertex 10.746745957331544 0 -2.628655559126081
vertex 15 2.6286555591260834 -4.253254042668453
vertex 15 -2.6286555591260834 -4.253254042668453
endloop
endfacet
endsolid csg.js
