solid csg.js
facet normal 0.5773502691896262 -0.5773502691896264 0.577350269189625
outer loop
vertex -27.886751345948127 -2.886751345948129 2.8867513459481287
vertex -22.113248654051873 -2.8867513459481287 -2.8867513459481287
vertex -22.113248654051873 2.8867513459481287 2.8867513459481287
endloop
endfacet
facet normal -0.5773502691896251 0.5773502691896261 0.5773502691896261
outer loop
vertex -27.886751345948127 2.886751345948129 -2.8867513459481287
vertex -27.886751345948127 -2.886751345948129 2.8867513459481287
vertex -22.113248654051873 2.8867513459481287 2.8867513459481287
endloop
endfacet
facet normal -0.5773502691896251 -0.5773502691896261 -0.5773502691896261
outer loop
vertex -22.113248654051873 -2.8867513459481287 -2.8867513459481287
vertex -27.886751345948127 -2.886751345948129 2.8867513459481287
vertex -27.886751345948127 2.886751345948129 -2.8867513459481287
endloop
endfacet
facet normal 0.5773502691896258 0.5773502691896263 -0.5773502691896251
outer loop
vertex -22.113248654051873 -2.8867513459481287 -2.8867513459481287
vertex -27.886751345948127 2.886751345948129 -2.8867513459481287
vertex -22.113248654051873 2.8867513459481287 2.8867513459481287
endloop
endfacet
facet normal 0 0 1
outer loop
vertex -17.886751345948127 2.886751345948129 2.8867513459481287
vertex -17.886751345948127 -2.886751345948129 2.8867513459481287
vertex -12.113248654051871 -2.8867513459481287 2.8867513459481287
endloop
endfacet
facet normal 0 0 1
outer loop
vertex -17.886751345948127 2.886751345948129 2.8867513459481287
vertex -12.113248654051871 -2.8867513459481287 2.8867513459481287
vertex -12.113248654051871 2.8867513459481287 2.8867513459481287
endloop
endfacet
facet normal 0 1 0
outer loop
vertex -12.113248654051871 2.8867513459481287 -2.8867513459481287
vertex -17.886751345948127 2.886751345948129 -2.8867513459481287
vertex -17.886751345948127 2.886751345948129 2.8867513459481287
endloop
endfacet
facet normal 0 1 0
outer loop
vertex -12.113248654051871 2.8867513459481287 -2.8867513459481287
vertex -17.886751345948127 2.886751345948129 2.8867513459481287
vertex -12.113248654051871 2.8867513459481287 2.8867513459481287
endloop
endfacet
facet normal -1 0 0
outer loop
vertex -17.886751345948127 2.886751345948129 -2.8867513459481287
vertex -17.886751345948127 -2.886751345948129 -2.8867513459481287
vertex -17.886751345948127 -2.886751345948129 2.8867513459481287
endloop
endfacet
facet normal -1 0 0
outer loop
vertex -17.886751345948127 2.886751345948129 -2.8867513459481287
vertex -17.886751345948127 -2.886751345948129 2.8867513459481287
vertex -17.886751345948127 2.886751345948129 2.8867513459481287
endloop
endfacet
facet normal 0 -1 0
outer loop
vertex -17.886751345948127 -2.886751345948129 -2.8867513459481287
vertex -12.113248654051871 -2.8867513459481287 -2.8867513459481287
vertex -12.113248654051871 -2.8867513459481287 2.8867513459481287
endloop
endfacet
facet normal 0 -1 0
outer loop
vertex -17.886751345948127 -2.886751345948129 -2.8867513459481287
vertex -12.113248654051871 -2.8867513459481287 2.8867513459481287
vertex -17.886751345948127 -2.886751345948129 2.8867513459481287
endloop
endfacet
facet normal 1 0 0
outer loop
vertex -12.113248654051871 -2.8867513459481287 -2.8867513459481287
vertex -12.113248654051871 2.8867513459481287 -2.8867513459481287
vertex -12.113248654051871 2.8867513459481287 2.8867513459481287
endloop
endfacet
facet normal 1 0 0
outer loop
vertex -12.113248654051871 -2.8867513459481287 -2.8867513459481287
vertex -12.113248654051871 2.8867513459481287 2.8867513459481287
vertex -12.113248654051871 -2.8867513459481287 2.8867513459481287
endloop
endfacet
facet normal 0 0 -1
outer loop
vertex -12.113248654051871 -2.8867513459481287 -2.8867513459481287
vertex -17.886751345948127 -2.886751345948129 -2.8867513459481287
vertex -17.886751345948127 2.886751345948129 -2.8867513459481287
endloop
endfacet
facet normal 0 0 -1
outer loop
vertex -12.113248654051871 -2.8867513459481287 -2.8867513459481287
vertex -17.886751345948127 2.886751345948129 -2.8867513459481287
vertex -12.113248654051871 2.8867513459481287 -2.8867513459481287
endloop
endfacet
facet normal 0.577350269189626 0.5773502691896256 0.5773502691896256
outer loop
vertex 0 0 0
vertex -5 5 0
vertex -5 0 5
endloop
endfacet
facet normal 0.577350269189626 -0.5773502691896256 0.5773502691896256
outer loop
vertex -5 -5 0
vertex 0 0 0
vertex -5 0 5
endloop
endfacet
facet normal -0.5773502691896258 -0.5773502691896258 0.5773502691896255
outer loop
vertex -10 0 0
vertex -5 -5 0
vertex -5 0 5
endloop
endfacet
facet normal -0.5773502691896261 0.5773502691896256 0.5773502691896256
outer loop
vertex -5 5 0
vertex -10 0 0
vertex -5 0 5
endloop
endfacet
facet normal 0.577350269189626 0.5773502691896256 -0.5773502691896256
outer loop
vertex -5 5 0
vertex 0 0 0
vertex -5 0 -5
endloop
endfacet
facet normal 0.577350269189626 -0.5773502691896256 -0.5773502691896256
outer loop
vertex 0 0 0
vertex -5 -5 0
vertex -5 0 -5
endloop
endfacet
facet normal -0.5773502691896255 -0.577350269189626 -0.577350269189626
outer loop
vertex -5 -5 0
vertex -10 0 0
vertex -5 0 -5
endloop
endfacet
facet normal -0.5773502691896256 0.5773502691896256 -0.5773502691896261
outer loop
vertex -10 0 0
vertex -5 5 0
vertex -5 0 -5
endloop
endfacet
facet normal 0.5257311123150786 0 0.8506508082309392
outer loop
vertex 5 1.7841104464596211 4.670861795732523
vertex 5 -1.7841104464596211 4.670861795732523
vertex 7.886751345948129 -2.8867513459481287 2.8867513459481287
endloop
endfacet
facet normal 0.5257311123150783 0 0.8506508082309395
outer loop
vertex 7.886751345948129 2.8867513459481287 2.8867513459481287
vertex 5 1.7841104464596211 4.670861795732523
vertex 7.886751345948129 -2.8867513459481287 2.8867513459481287
endloop
endfacet
facet normal 0.5257311127532245 0 0.8506508079601502
outer loop
vertex 9.670861795732524 0 1.7841104464596214
vertex 7.886751345948129 2.8867513459481287 2.8867513459481287
vertex 7.886751345948129 -2.8867513459481287 2.8867513459481287
endloop
endfacet
facet normal -3.027515367396762e-10 -0.8506508081792232 0.525731112398757
outer loop
vertex 6.784110446459621 -4.670861795732523 0
vertex 7.886751345948129 -2.8867513459481287 2.8867513459481287
vertex 5 -1.7841104464596211 4.670861795732523
endloop
endfacet
facet normal 0 -0.8506508081275072 0.5257311124824354
outer loop
vertex 3.215889553540378 -4.670861795732523 0
vertex 6.784110446459621 -4.670861795732523 0
vertex 5 -1.7841104464596211 4.670861795732523
endloop
endfacet
facet normal 3.027515367396762e-10 -0.8506508081792232 0.525731112398757
outer loop
vertex 2.1132486540518713 -2.886751345948129 2.8867513459481287
vertex 3.215889553540378 -4.670861795732523 0
vertex 5 -1.7841104464596211 4.670861795732523
endloop
endfacet
facet normal -0.525731112398757 3.027513032681619e-10 0.8506508081792232
outer loop
vertex 0.3291382042674771 0 1.7841104464596214
vertex 2.1132486540518713 -2.886751345948129 2.8867513459481287
vertex 5 -1.7841104464596211 4.670861795732523
endloop
endfacet
facet normal -0.5257311125341517 -1.871107398513823e-10 0.8506508080955446
outer loop
vertex 2.1132486540518713 2.886751345948129 2.8867513459481287
vertex 0.3291382042674771 0 1.7841104464596214
vertex 5 -1.7841104464596211 4.670861795732523
endloop
endfacet
facet normal -0.5257311123150786 0 0.8506508082309392
outer loop
vertex 5 1.7841104464596211 4.670861795732523
vertex 2.1132486540518713 2.886751345948129 2.8867513459481287
vertex 5 -1.7841104464596211 4.670861795732523
endloop
endfacet
facet normal 3.027515367396762e-10 0.8506508081792232 0.5257311123987569
outer loop
vertex 3.215889553540378 4.670861795732523 0
vertex 2.1132486540518713 2.886751345948129 2.8867513459481287
vertex 5 1.7841104464596211 4.670861795732523
endloop
endfacet
facet normal 0 0.8506508081275072 0.5257311124824354
outer loop
vertex 6.784110446459621 4.670861795732523 0
vertex 3.215889553540378 4.670861795732523 0
vertex 5 1.7841104464596211 4.670861795732523
endloop
endfacet
facet normal -3.027515367396763e-10 0.8506508081792231 0.525731112398757
outer loop
vertex 7.886751345948129 2.8867513459481287 2.8867513459481287
vertex 6.784110446459621 4.670861795732523 0
vertex 5 1.7841104464596211 4.670861795732523
endloop
endfacet
facet normal 0.8506508079601497 0.5257311127532256 0
outer loop
vertex 7.886751345948129 2.8867513459481287 -2.8867513459481287
vertex 6.784110446459621 4.670861795732523 0
vertex 7.886751345948129 2.8867513459481287 2.8867513459481287
endloop
endfacet
facet normal 0.8506508082309394 0.5257311123150785 0
outer loop
vertex 9.670861795732524 0 -1.7841104464596218
vertex 7.886751345948129 2.8867513459481287 -2.8867513459481287
vertex 7.886751345948129 2.8867513459481287 2.8867513459481287
endloop
endfacet
facet normal 0.8506508082309394 0.5257311123150785 0
outer loop
vertex 9.670861795732524 0 1.7841104464596214
vertex 9.670861795732524 0 -1.7841104464596218
vertex 7.886751345948129 2.8867513459481287 2.8867513459481287
endloop
endfacet
facet normal 0.8506508082309394 -0.5257311123150785 0
outer loop
vertex 9.670861795732524 0 -1.7841104464596218
vertex 9.670861795732524 0 1.7841104464596214
vertex 7.886751345948129 -2.8867513459481287 2.8867513459481287
endloop
endfacet
facet normal 0.8506508082309394 -0.5257311123150785 0
outer loop
vertex 7.886751345948129 -2.8867513459481287 -2.8867513459481287
vertex 9.670861795732524 0 -1.7841104464596218
vertex 7.886751345948129 -2.8867513459481287 2.8867513459481287
endloop
endfacet
facet normal 0.8506508079601497 -0.5257311127532255 0
outer loop
vertex 6.784110446459621 -4.670861795732523 0
vertex 7.886751345948129 -2.8867513459481287 -2.8867513459481287
vertex 7.886751345948129 -2.8867513459481287 2.8867513459481287
endloop
endfacet
facet normal 0 -0.8506508082309393 -0.5257311123150786
outer loop
vertex 7.886751345948129 -2.8867513459481287 -2.8867513459481287
vertex 6.784110446459621 -4.670861795732523 0
vertex 3.215889553540378 -4.670861795732523 0
endloop
endfacet
facet normal -1.871107398513823e-10 -0.8506508080955446 -0.5257311125341517
outer loop
vertex 5 -1.7841104464596205 -4.670861795732523
vertex 7.886751345948129 -2.8867513459481287 -2.8867513459481287
vertex 3.215889553540378 -4.670861795732523 0
endloop
endfacet
facet normal 3.0275191450452146e-10 -0.8506508081792232 -0.5257311123987568
outer loop
vertex 2.1132486540518713 -2.886751345948129 -2.8867513459481287
vertex 5 -1.7841104464596205 -4.670861795732523
vertex 3.215889553540378 -4.670861795732523 0
endloop
endfacet
facet normal -0.8506508079601502 -0.5257311127532245 0
outer loop
vertex 2.1132486540518713 -2.886751345948129 -2.8867513459481287
vertex 3.215889553540378 -4.670861795732523 0
vertex 2.1132486540518713 -2.886751345948129 2.8867513459481287
endloop
endfacet
facet normal -0.8506508082309394 -0.5257311123150785 0
outer loop
vertex 0.3291382042674771 0 -1.7841104464596218
vertex 2.1132486540518713 -2.886751345948129 -2.8867513459481287
vertex 2.1132486540518713 -2.886751345948129 2.8867513459481287
endloop
endfacet
facet normal -0.8506508082309396 -0.5257311123150782 0
outer loop
vertex 0.3291382042674771 0 1.7841104464596214
vertex 0.3291382042674771 0 -1.7841104464596218
vertex 2.1132486540518713 -2.886751345948129 2.8867513459481287
endloop
endfacet
facet normal -0.8506508082309396 0.5257311123150782 0
outer loop
vertex 2.1132486540518713 2.886751345948129 -2.8867513459481287
vertex 0.3291382042674771 0 -1.7841104464596218
vertex 0.3291382042674771 0 1.7841104464596214
endloop
endfacet
facet normal -0.8506508080955447 0.5257311125341518 1.8711073985138235e-10
outer loop
vertex 3.215889553540378 4.670861795732523 0
vertex 2.1132486540518713 2.886751345948129 -2.8867513459481287
vertex 0.3291382042674771 0 1.7841104464596214
endloop
endfacet
facet normal -0.8506508081792232 0.5257311123987568 -3.0275153673967625e-10
outer loop
vertex 2.1132486540518713 2.886751345948129 2.8867513459481287
vertex 3.215889553540378 4.670861795732523 0
vertex 0.3291382042674771 0 1.7841104464596214
endloop
endfacet
facet normal 3.0275191450452146e-10 0.8506508081792232 -0.5257311123987568
outer loop
vertex 5 1.7841104464596205 -4.670861795732523
vertex 2.1132486540518713 2.886751345948129 -2.8867513459481287
vertex 3.215889553540378 4.670861795732523 0
endloop
endfacet
facet normal -1.8711097332289665e-10 0.8506508080955446 -0.5257311125341517
outer loop
vertex 7.886751345948129 2.8867513459481287 -2.8867513459481287
vertex 5 1.7841104464596205 -4.670861795732523
vertex 3.215889553540378 4.670861795732523 0
endloop
endfacet
facet normal 0 0.8506508082309393 -0.5257311123150787
outer loop
vertex 6.784110446459621 4.670861795732523 0
vertex 7.886751345948129 2.8867513459481287 -2.8867513459481287
vertex 3.215889553540378 4.670861795732523 0
endloop
endfacet
facet normal 0.525731112398757 -3.027520036827048e-10 -0.8506508081792232
outer loop
vertex 5 1.7841104464596205 -4.670861795732523
vertex 7.886751345948129 2.8867513459481287 -2.8867513459481287
vertex 9.670861795732524 0 -1.7841104464596218
endloop
endfacet
facet normal 0.5257311124824358 0 -0.8506508081275069
outer loop
vertex 5 -1.7841104464596205 -4.670861795732523
vertex 5 1.7841104464596205 -4.670861795732523
vertex 9.670861795732524 0 -1.7841104464596218
endloop
endfacet
facet normal 0.5257311123987567 3.0275200368270485e-10 -0.8506508081792236
outer loop
vertex 7.886751345948129 -2.8867513459481287 -2.8867513459481287
vertex 5 -1.7841104464596205 -4.670861795732523
vertex 9.670861795732524 0 -1.7841104464596218
endloop
endfacet
facet normal -0.525731112398757 3.027513032681619e-10 -0.8506508081792232
outer loop
vertex 5 -1.7841104464596205 -4.670861795732523
vertex 2.1132486540518713 -2.886751345948129 -2.8867513459481287
vertex 0.3291382042674771 0 -1.7841104464596218
endloop
endfacet
facet normal -0.5257311124824354 0 -0.8506508081275072
outer loop
vertex 5 1.7841104464596205 -4.670861795732523
vertex 5 -1.7841104464596205 -4.670861795732523
vertex 0.3291382042674771 0 -1.7841104464596218
endloop
endfacet
facet normal -0.5257311123987574 -3.027515367396762e-10 -0.850650808179223
outer loop
vertex 2.1132486540518713 2.886751345948129 -2.8867513459481287
vertex 5 1.7841104464596205 -4.670861795732523
vertex 0.3291382042674771 0 -1.7841104464596218
endloop
endfacet
facet normal 0.3568220901623606 0 0.9341723588140275
outer loop
vertex 19.253254042668452 0 2.6286555591260816
vertex 15 2.628655559126081 4.253254042668454
vertex 15 -2.628655559126081 4.253254042668454
endloop
endfacet
facet normal 0.5773502691896253 -0.577350269189626 0.5773502691896261
outer loop
vertex 17.62865555912608 -4.253254042668454 0
vertex 19.253254042668452 0 2.6286555591260816
vertex 15 -2.628655559126081 4.253254042668454
endloop
endfacet
facet normal 0 -0.9341723588140275 0.35682209016236094
outer loop
vertex 12.37134444087392 -4.253254042668455 0
vertex 17.62865555912608 -4.253254042668454 0
vertex 15 -2.628655559126081 4.253254042668454
endloop
endfacet
facet normal -0.5773502691896261 -0.5773502691896256 0.5773502691896256
outer loop
vertex 10.746745957331546 0 2.6286555591260816
vertex 12.37134444087392 -4.253254042668455 0
vertex 15 -2.628655559126081 4.253254042668454
endloop
endfacet
facet normal -0.35682209016236144 0 0.9341723588140273
outer loop
vertex 15 2.628655559126081 4.253254042668454
vertex 10.746745957331546 0 2.6286555591260816
vertex 15 -2.628655559126081 4.253254042668454
endloop
endfacet
facet normal 0.577350269189625 0.5773502691896264 0.577350269189626
outer loop
vertex 19.253254042668452 0 2.6286555591260816
vertex 17.62865555912608 4.253254042668454 0
vertex 15 2.628655559126081 4.253254042668454
endloop
endfacet
facet normal -0.5773502691896261 0.5773502691896256 0.5773502691896256
outer loop
vertex 12.37134444087392 4.253254042668455 0
vertex 10.746745957331546 0 2.6286555591260816
vertex 15 2.628655559126081 4.253254042668454
endloop
endfacet
facet normal 0 0.9341723588140274 0.3568220901623613
outer loop
vertex 17.62865555912608 4.253254042668454 0
vertex 12.37134444087392 4.253254042668455 0
vertex 15 2.628655559126081 4.253254042668454
endloop
endfacet
facet normal 0.9341723588140276 0.3568220901623605 0
outer loop
vertex 19.253254042668456 0 -2.628655559126081
vertex 17.62865555912608 4.253254042668454 0
vertex 19.253254042668452 0 2.6286555591260816
endloop
endfacet
facet normal 0.9341723588140276 -0.3568220901623606 0
outer loop
vertex 17.62865555912608 -4.253254042668454 0
vertex 19.253254042668456 0 -2.628655559126081
vertex 19.253254042668452 0 2.6286555591260816
endloop
endfacet
facet normal -0.9341723588140269 -0.3568220901623621 0
outer loop
vertex 10.746745957331544 0 -2.628655559126081
vertex 12.37134444087392 -4.253254042668455 0
vertex 10.746745957331546 0 2.6286555591260816
endloop
endfacet
facet normal -0.934172358814027 0.35682209016236216 0
outer loop
vertex 12.37134444087392 4.253254042668455 0
vertex 10.746745957331544 0 -2.628655559126081
vertex 10.746745957331546 0 2.6286555591260816
endloop
endfacet
facet normal 0.577350269189626 -0.577350269189625 -0.5773502691896265
outer loop
vertex 15 -2.6286555591260834 -4.253254042668453
vertex 19.253254042668456 0 -2.628655559126081
vertex 17.62865555912608 -4.253254042668454 0
endloop
endfacet
facet normal 0 -0.9341723588140275 -0.35682209016236094
outer loop
vertex 12.37134444087392 -4.253254042668455 0
vertex 15 -2.6286555591260834 -4.253254042668453
vertex 17.62865555912608 -4.253254042668454 0
endloop
endfacet
facet normal -0.5773502691896261 -0.5773502691896255 -0.5773502691896255
outer loop
vertex 12.37134444087392 -4.253254042668455 0
vertex 10.746745957331544 0 -2.628655559126081
vertex 15 -2.6286555591260834 -4.253254042668453
endloop
endfacet
facet normal 0.5773502691896262 0.5773502691896262 -0.5773502691896248
outer loop
vertex 17.62865555912608 4.253254042668454 0
vertex 19.253254042668456 0 -2.628655559126081
vertex 15 2.6286555591260834 -4.253254042668453
endloop
endfacet
facet normal 0 0.9341723588140275 -0.35682209016236094
outer loop
vertex 12.37134444087392 4.253254042668455 0
vertex 17.62865555912608 4.253254042668454 0
vertex 15 2.6286555591260834 -4.253254042668453
endloop
endfacet
facet normal -0.577350269189626 0.5773502691896265 -0.577350269189625
outer loop
vertex 10.746745957331544 0 -2.628655559126081
vertex 12.37134444087392 4.253254042668455 0
vertex 15 2.6286555591260834 -4.253254042668453
endloop
endfacet
facet normal 0.356822090162362 0 -0.9341723588140269
outer loop
vertex 15 -2.6286555591260834 -4.253254042668453
vertex 15 2.6286555591260834 -4.253254042668453
vertex 19.253254042668456 0 -2.628655559126081
endloop
endfacet
facet normal -0.35682209016236144 0 -0.9341723588140273
outer loop
vertex 10.746745957331544 0 -2.628655559126081
vertex 15 2.6286555591260834 -4.253254042668453
vertex 15 -2.6286555591260834 -4.253254042668453
endloop
endfacet
endsolid csg.js
