<?xml version="1.0" encoding="UTF-8" standalone="no"?>
<!-- Created with Inkscape (http://www.inkscape.org/) -->

<svg
   xmlns:dc="http://purl.org/dc/elements/1.1/"
   xmlns:cc="http://creativecommons.org/ns#"
   xmlns:rdf="http://www.w3.org/1999/02/22-rdf-syntax-ns#"
   xmlns:svg="http://www.w3.org/2000/svg"
   xmlns="http://www.w3.org/2000/svg"
   xmlns:xlink="http://www.w3.org/1999/xlink"
   version="1.2"
   width="1664.3536"
   height="322.49973"
   id="svg4052">
  <defs
     id="defs4054">
    <linearGradient
       id="linearGradient4643">
      <stop
         id="stop4645"
         style="stop-color:#fafa02;stop-opacity:1"
         offset="0" />
      <stop
         id="stop4647"
         style="stop-color:#4c4c00;stop-opacity:1"
         offset="1" />
    </linearGradient>
    <linearGradient
       id="linearGradient4604">
      <stop
         id="stop4606"
         style="stop-color:#4c1f4c;stop-opacity:1"
         offset="0" />
      <stop
         id="stop4608"
         style="stop-color:#ea5eea;stop-opacity:1"
         offset="1" />
    </linearGradient>
    <radialGradient
       cx="349.27002"
       cy="452.82568"
       r="91"
       fx="349.27002"
       fy="452.82568"
       id="radialGradient4983"
       xlink:href="#linearGradient4643"
       gradientUnits="userSpaceOnUse"
       gradientTransform="matrix(1.5726259,-3.1092827,2.7470616,1.38942,-1559.3788,970.44713)" />
    <radialGradient
       cx="449.5"
       cy="458.60217"
       r="91"
       fx="449.5"
       fy="458.60217"
       id="radialGradient4985"
       xlink:href="#linearGradient4643"
       gradientUnits="userSpaceOnUse"
       gradientTransform="matrix(2.2362637,-0.04395604,0.04313771,2.194631,-575.48359,-485.09211)" />
    <linearGradient
       x1="323.12949"
       y1="471.46204"
       x2="503.37054"
       y2="215.74777"
       id="linearGradient4987"
       xlink:href="#linearGradient4604"
       gradientUnits="userSpaceOnUse" />
    <radialGradient
       cx="349.27002"
       cy="452.82568"
       r="91"
       fx="349.27002"
       fy="452.82568"
       id="radialGradient5045"
       xlink:href="#linearGradient4643"
       gradientUnits="userSpaceOnUse"
       gradientTransform="matrix(1.5726259,-3.1092827,2.7470616,1.38942,-1559.3788,970.44713)" />
    <radialGradient
       cx="449.5"
       cy="458.60217"
       r="91"
       fx="449.5"
       fy="458.60217"
       id="radialGradient5047"
       xlink:href="#linearGradient4643"
       gradientUnits="userSpaceOnUse"
       gradientTransform="matrix(2.2362637,-0.04395604,0.04313771,2.194631,-575.48359,-485.09211)" />
    <linearGradient
       x1="323.12949"
       y1="471.46204"
       x2="503.37054"
       y2="215.74777"
       id="linearGradient5049"
       xlink:href="#linearGradient4604"
       gradientUnits="userSpaceOnUse" />
  </defs>
  <metadata
     id="metadata4057">
    <rdf:RDF>
      <cc:Work
         rdf:about="">
        <dc:format>image/svg+xml</dc:format>
        <dc:type
           rdf:resource="http://purl.org/dc/dcmitype/StillImage" />
        <dc:title></dc:title>
      </cc:Work>
    </rdf:RDF>
  </metadata>
  <g
     transform="translate(-214.0073,-91.687501)"
     id="layer1">
    <g
       transform="matrix(0.46657307,0,0,0.46657307,205.16941,70.572909)"
       id="g4876">
      <path
         d="m 339.0577,179.43886 70.35712,-2.47487 c 39.06522,-67.2303 113.26266,-69.46373 172.53406,-24.39519 L 603.51564,122.16322 476.23642,89.28275 373.35238,76.554828 210.36427,101.30357 l -67.5287,29.34493 22.62742,22.98097 c 58.84368,-47.15052 132.94317,-45.00813 173.59471,25.80939 z"
         id="path4655"
         style="fill:#4c4c00;fill-opacity:1;stroke:none" />
      <path
         d="m 254.35725,488.36218 c -37.13565,12.59142 -96.02258,68.68784 -11,120.5 l -9,13 -122,-88 -33.499997,-152.49999 -5.5,-135 39.499997,-23 c -56.851627,141.9572 8.90481,264.46772 117.5,235.99999 z"
         id="path4651"
         style="fill:url(#radialGradient5045);fill-opacity:1;stroke:none" />
      <path
         d="m 495.5,488.36218 c 37.13565,12.59142 96.02258,68.68784 11,120.5 l 9,13 122,-88 33.5,-152.49999 5.5,-135 -39.5,-23 c 56.85163,141.9572 -8.90481,264.46772 -117.5,235.99999 z"
         id="path4641"
         style="fill:url(#radialGradient5047);fill-opacity:1;stroke:none" />
      <g
         id="g4620">
        <path
           d="m 248.1875,207.09375 c -39.43474,34.70972 -64.34375,85.5238 -64.34375,142.1875 0,104.60472 84.80153,189.40625 189.40625,189.40625 104.60472,0 189.40625,-84.80153 189.40625,-189.40625 0,-55.91423 -24.24974,-106.14229 -62.78125,-140.8125 -15.74677,24.11098 -65.93311,41.75 -125.40625,41.75 -60.60393,0 -111.57877,-18.30849 -126.28125,-43.125 z"
           id="path4590"
           style="fill:url(#linearGradient5049);fill-opacity:1;stroke:none" />
        <path
           d="m 551.00415,416.24055 c -20.15243,58.35728 -72.37096,100.93463 -108.42956,87.54972 -36.05861,-13.3849 -47.30262,-75.16347 -22.15019,-136.02075 25.15244,-60.85728 71.65668,-99.50606 107.71529,-86.12116 36.0586,13.38491 43.0169,76.2349 22.86446,134.59219 z"
           id="path4592"
           style="fill:#a4a400;fill-opacity:1;stroke:none" />
        <path
           d="m 195.85777,416.24055 c 20.15243,58.35728 72.37096,100.93463 108.42956,87.54972 36.05861,-13.3849 47.30262,-75.16347 22.15019,-136.02075 -25.15244,-60.85728 -71.65668,-99.50606 -107.71529,-86.12116 -36.0586,13.38491 -43.0169,76.2349 -22.86446,134.59219 z"
           id="path4595"
           style="fill:#616100;fill-opacity:1;stroke:none" />
        <path
           d="m 467.50001,201.29076 a 97.14286,24.285715 0 1 1 -194.28572,0 97.14286,24.285715 0 1 1 194.28572,0 z"
           transform="matrix(1.0808824,0,0,1,-27.098214,-6.0714286)"
           id="path4602"
           style="fill:#e7e700;fill-opacity:1;stroke:none" />
      </g>
      <path
         d="m 40.375,131.78125 49.46875,409.8125 284.625,173.4375 7.65625,-485.875 -341.75,-97.375 z M 158.15625,205 c 60.72963,-1.3906 133.94659,69.56149 165.4375,159.21875 35.35823,100.66781 34.00957,221.64585 -29.8125,244.0625 C 229.95918,630.6979 138.95198,549.60531 103.59375,448.9375 68.235522,348.26969 72.615422,231.3229 136.4375,208.90625 143.41804,206.45443 150.69823,205.17078 158.15625,205 z"
         id="path4071"
         style="fill:#612761;fill-opacity:1;stroke:none" />
      <path
         d="m 708.15625,131.8125 -333.6875,96.25 0,486.96875 284.21875,-173.96875 49.46875,-409.25 z M 584.8125,205 c 8.58267,-0.15871 16.95974,1.10417 24.9375,3.90625 63.82207,22.41665 68.20197,139.36345 32.84375,240.03125 C 607.23553,549.60531 516.22833,630.69791 452.40625,608.28125 388.58418,585.8646 387.23552,464.88655 422.59375,364.21875 453.53219,276.13442 524.73381,206.111 584.8125,205 z"
         id="path4626"
         style="fill:#a442a4;fill-opacity:1;stroke:none" />
      <path
         d="M 374.84375,66.6875 40.375,131.78125 374.46875,232.21875 708.15625,131.8125 374.84375,66.6875 z m -3.3125,21.6875 c 114.36783,0 207.09375,22.49488 207.09375,50.25 0,27.75512 -92.72592,50.25 -207.09375,50.25 -114.36783,0 -207.09375,-22.49488 -207.09375,-50.25 0,-27.75512 92.72592,-50.25 207.09375,-50.25 z"
         id="path4628"
         style="fill:#e75ce7;fill-opacity:1;stroke:none" />
    </g>
    <g
       transform="matrix(1.2055683,0,0,1.2055683,522.11783,-1072.0995)"
       id="g4812">
      <path
         d="m 159.15878,1100.727 c -1.1e-4,8.2185 -1.13827,15.7074 -3.41446,22.467 -2.27642,6.7595 -5.63667,12.5465 -10.08079,17.3609 -4.44432,4.8143 -9.91828,8.5345 -16.42193,11.1606 -6.50381,2.626 -13.956,3.939 -22.35659,3.939 -8.834298,0 -16.530376,-1.313 -23.088262,-3.939 -6.557967,-2.6261 -12.004839,-6.3463 -16.340636,-11.1606 -4.335842,-4.8144 -7.587707,-10.6014 -9.755604,-17.3609 -2.167921,-6.8082 -3.251878,-14.3458 -3.251867,-22.613 -1.1e-5,-8.267 1.083946,-15.756 3.251867,-22.467 2.167897,-6.7596 5.419762,-12.5222 9.755604,-17.288 4.335797,-4.7657 9.809768,-8.4372 16.421931,-11.0147 6.612086,-2.6258 14.335259,-3.9389 23.169557,-3.939 8.40059,10e-5 15.82567,1.3132 22.2753,3.939 6.44945,2.5775 11.89631,6.2734 16.34063,11.0877 4.44412,4.7658 7.80437,10.5284 10.08079,17.2879 2.27619,6.711 3.41435,14.2244 3.41446,22.5401 m -86.255791,0 c -2.7e-5,7.3917 0.596148,14.0054 1.788528,19.841 1.246519,5.7869 3.224737,10.6986 5.934659,14.7349 2.709851,3.9876 6.205605,7.0513 10.487273,9.1911 4.335774,2.0911 9.592951,3.1366 15.771561,3.1366 6.17847,0 11.40857,-1.0455 15.69025,-3.1366 4.33575,-2.1398 7.83151,-5.2035 10.48728,-9.1911 2.70981,-4.0363 4.66092,-8.948 5.85336,-14.7349 1.19227,-5.8356 1.78843,-12.4493 1.78854,-19.841 -1.1e-4,-7.3918 -0.59627,-13.9811 -1.78854,-19.7682 -1.19244,-5.8355 -3.14355,-10.747 -5.85336,-14.7348 -2.65577,-3.9876 -6.12442,-7.027 -10.40598,-9.1182 -4.2275,-2.091 -9.43047,-3.1365 -15.60896,-3.1366 -6.1786,10e-5 -11.435784,1.0456 -15.771558,3.1366 -4.335865,2.0912 -7.885818,5.1306 -10.649866,9.1182 -2.709922,3.9878 -4.68814,8.8993 -5.934659,14.7348 -1.19238,5.7871 -1.788555,12.3764 -1.788528,19.7682"
         id="path4717"
         style="font-size:130px;font-style:normal;font-variant:normal;font-weight:normal;font-stretch:normal;line-height:125%;letter-spacing:9.0199995px;word-spacing:0px;fill:#5a5a5a;fill-opacity:1;stroke:none;font-family:Droid Serif;-inkscape-font-specification:Droid Serif" />
      <path
         d="m 212.36977,1091.4836 c -3.48086,10e-5 -6.39605,0.5714 -8.74557,1.7139 -2.30608,1.1003 -4.15527,2.793 -5.54756,5.0781 -1.39236,2.2852 -2.3931,5.1628 -3.00222,8.6328 -0.56565,3.4701 -0.84848,7.5538 -0.84844,12.251 -4e-5,4.528 0.34529,17.3395 0.91094,20.8096 1.05006,6.2198 2.52054,8.9271 14.05089,9.1201 6.96708,0.099 12.72748,-4.3193 16.13665,-9.6343 3.07617,-4.7959 3.37187,-11.4968 3.62274,-20.4224 -6e-5,-4.6125 -0.30463,-8.6327 -0.91371,-12.0605 -0.60921,-3.47 -1.58819,-6.3476 -2.93695,-8.6328 -1.30536,-2.2851 -3.02402,-3.999 -5.15598,-5.1416 -2.08854,-1.1425 -4.61213,-1.7138 -7.57079,-1.7139 m 29.56527,27.6758 c -0.38334,25.3047 -18.28212,34.7595 -27.33383,34.7587 -6.10603,0.096 -14.14739,-0.076 -20.3751,-0.2159 l 0,24.3388 c -3e-5,1.9043 0.28279,3.4277 0.84844,4.5703 0.60912,1.1849 1.41406,2.0736 2.41483,2.666 1.0007,0.6348 2.15373,1.0368 3.45907,1.2061 1.34879,0.2116 2.76286,0.3173 4.24225,0.3174 l 0.3916,0 0,5.459 -35.96128,0 0,-5.459 1.04425,0 c 1.52285,-10e-5 2.93694,-0.1058 4.24226,-0.3174 1.34881,-0.2116 2.50183,-0.656 3.45906,-1.333 1.00073,-0.6348 1.78392,-1.587 2.34956,-2.8565 0.60913,-1.2272 0.91372,-2.8564 0.91372,-4.8877 l 0,-78.6228 c 0,-1.9042 -0.30459,-3.4276 -0.91372,-4.5703 -0.56564,-1.1848 -1.34883,-2.0947 -2.34956,-2.7295 -1.00074,-0.6347 -2.17552,-1.0579 -3.52433,-1.2695 -1.30532,-0.2115 -2.69764,-0.3173 -4.17699,-0.3174 l -1.6969,0 0,-5.459 23.36504,0 1.37058,11.7432 0.52212,0 c 1.00071,-1.9889 2.13197,-3.7874 3.3938,-5.3955 1.26177,-1.608 2.71936,-2.9622 4.37279,-4.0625 1.65336,-1.1425 3.5243,-2.01 5.61282,-2.6026 2.08846,-0.6347 4.43802,-0.952 7.04868,-0.9521 4.39449,10e-5 8.28866,0.7195 11.68252,2.1582 3.39374,1.3965 6.24366,3.5759 8.54978,6.5381 2.30597,2.92 4.04638,6.6439 5.22123,11.1719 1.21822,4.528 1.82736,9.9023 1.82744,16.123"
         id="path4719"
         style="font-size:130px;font-style:normal;font-variant:normal;font-weight:normal;font-stretch:normal;line-height:125%;letter-spacing:9.0199995px;word-spacing:0px;fill:#5a5a5a;fill-opacity:1;stroke:none;font-family:Droid Serif;-inkscape-font-specification:Droid Serif" />
      <path
         d="m 284.73824,1090.1506 c -4.82425,10e-5 -8.54821,1.9678 -11.17188,5.9033 -2.5814,3.8933 -4.10484,9.6062 -4.57031,17.1387 l 29.89746,0 c -5e-5,-3.4277 -0.25396,-6.5592 -0.76172,-9.3945 -0.50786,-2.8353 -1.3119,-5.2685 -2.41211,-7.2998 -1.10031,-2.0312 -2.56026,-3.597 -4.37988,-4.6973 -1.77739,-1.1002 -3.9779,-1.6503 -6.60156,-1.6504 m 1.58691,65.2539 c -4.6973,0 -8.92907,-0.7829 -12.69531,-2.3486 -3.72398,-1.6081 -6.87665,-3.9356 -9.45801,-6.9824 -2.58139,-3.0469 -4.57032,-6.7709 -5.9668,-11.1719 -1.35417,-4.4433 -2.03125,-9.4791 -2.03125,-15.1074 0,-12.1452 2.49674,-21.2858 7.49024,-27.4219 4.99347,-6.136 12.10283,-9.204 21.32812,-9.2041 4.18941,10e-5 7.95569,0.656 11.29883,1.9678 3.34305,1.3119 6.17833,3.2797 8.50586,5.9033 2.32742,2.5814 4.10476,5.8187 5.33203,9.7119 1.26947,3.851 1.90423,8.3366 1.9043,13.457 l 0,5.9668 -43.29102,0 c 0.0846,4.7396 0.55011,8.8233 1.39649,12.251 0.88865,3.3854 2.13702,6.1784 3.74511,8.3789 1.65037,2.2005 3.66046,3.8298 6.03028,4.8877 2.36976,1.0156 5.09924,1.5235 8.18847,1.5234 2.2428,1e-4 4.31637,-0.2539 6.22071,-0.7617 1.94656,-0.5078 3.70275,-1.1849 5.26855,-2.0312 1.5657,-0.8464 2.94103,-1.7985 4.12598,-2.8565 1.22716,-1.1002 2.22162,-2.2428 2.9834,-3.4277 0.59239,0.2539 1.14252,0.7829 1.65039,1.5869 0.55007,0.804 0.82513,1.7562 0.82519,2.8565 -6e-5,1.3118 -0.46555,2.7295 -1.39648,4.2529 -0.93105,1.4811 -2.34869,2.8564 -4.25293,4.126 -1.90435,1.2695 -4.2953,2.3274 -7.17285,3.1738 -2.83533,0.8463 -6.17843,1.2695 -10.0293,1.2695"
         id="path4721"
         style="font-size:130px;font-style:normal;font-variant:normal;font-weight:normal;font-stretch:normal;line-height:125%;letter-spacing:9.0199995px;word-spacing:0px;fill:#5a5a5a;fill-opacity:1;stroke:none;font-family:Droid Serif;-inkscape-font-specification:Droid Serif" />
      <path
         d="m 372.21463,1083.1562 c -2.13767,2e-4 -4.19007,0.1928 -6.15315,0.5313 -1.91954,0.2963 -3.76387,0.8927 -5.50883,1.7813 -1.70141,0.8464 -3.32628,2.028 -4.89674,3.5937 -1.52691,1.5235 -2.98532,3.4942 -4.3813,5.9063 l -0.67652,0 -1.77185,-10.5313 -21.64875,0 0,5.4687 0.38658,0 c 1.48325,1e-4 2.87925,0.1011 4.18801,0.3126 1.35236,0.2116 2.5403,0.6152 3.54369,1.25 1.00336,0.6347 1.78459,1.5652 2.35173,2.75 0.61074,1.1427 0.90201,2.6583 0.90203,4.5624 l 0,40.5626 c -2e-5,2.0313 -0.29129,3.6477 -0.90203,4.875 -0.56714,1.2272 -1.34837,2.1978 -2.35173,2.875 -0.95976,0.6347 -2.1269,1.0383 -3.47926,1.25 -1.30876,0.2116 -2.72556,0.3437 -4.25244,0.3437 l -1.09532,0 0,5.4375 36.04904,0 0,-5.4375 -0.38658,0 c -1.48329,0 -2.90009,-0.081 -4.25244,-0.25 -1.30878,-0.2116 -2.47591,-0.6263 -3.47926,-1.2187 -1.0034,-0.5924 -1.80544,-1.4512 -2.41616,-2.5938 -0.56715,-1.1849 -0.86984,-2.752 -0.86981,-4.6562 l 0,-27.4063 c -3e-5,-2.7929 0.28185,-5.4609 0.80538,-8 0.56711,-2.539 1.47316,-4.7722 2.73831,-6.7187 1.26509,-1.9466 2.94297,-3.5137 4.99339,-4.6563 2.09396,-1.1425 4.64569,-1.7187 7.69948,-1.7187 2.70471,10e-5 5.01817,0.4147 6.8941,1.2187 1.87582,0.7618 3.37584,1.9141 4.51016,3.4375 1.17781,1.5235 2.02145,3.3934 2.54501,5.5938 0.52345,2.2006 0.77311,4.6959 0.77317,7.5312 l 0,31.5625 c -0.11055,1.3691 -0.37954,2.4858 -0.8376,3.4063 -0.56713,1.2273 -1.34837,2.1979 -2.35172,2.875 -0.95976,0.6349 -2.1269,1.0383 -3.47927,1.25 -1.30876,0.2116 -2.72555,0.3125 -4.25243,0.3124 l -1.12754,0 0,5.4688 12.04856,0 23.35617,0 0.67653,0 0,-5.4688 -0.4188,0 c -1.4833,0 -2.90009,-0.081 -4.25244,-0.25 -1.30878,-0.2117 -2.4437,-0.595 -3.44705,-1.1874 -0.5017,-0.2962 -0.98298,-0.6544 -1.38526,-1.0938 -0.16597,-0.1813 -0.30166,-0.3894 -0.45102,-0.5938 -0.075,-0.1026 -0.15464,-0.2042 -0.2255,-0.3124 -0.0353,-0.059 -0.0625,-0.1265 -0.0966,-0.1876 -0.1425,-0.255 -0.26521,-0.5278 -0.38658,-0.8124 -0.47996,-1.2273 -0.74103,-2.8437 -0.74096,-4.875 l 0,-6.9063 0,-23.8125 c -7e-5,-4.4433 -0.49941,-8.2838 -1.54634,-11.5 -1.00345,-3.2161 -2.51488,-5.8436 -4.47794,-7.875 -1.91956,-2.0735 -4.26323,-3.5891 -7.05517,-4.5625 -2.74844,-1.0155 -5.87333,-1.5312 -9.4069,-1.5313 z"
         id="path4723"
         style="font-size:130px;font-style:normal;font-variant:normal;font-weight:normal;font-stretch:normal;line-height:125%;letter-spacing:9.0199995px;word-spacing:0px;fill:#5a5a5a;fill-opacity:1;stroke:none;font-family:Droid Serif;-inkscape-font-specification:Droid Serif" />
      <path
         d="m 411.06534,1175.758 c 13.3627,-5.573 18.81708,-12.8809 18.97992,-23.9018 l 0,-88.7218 c -10e-6,-2.1207 -0.32992,-3.8175 -0.98972,-5.09 -0.6127,-1.3196 -1.46104,-2.3329 -2.545,-3.0399 -1.084,-0.7069 -2.35651,-1.1546 -3.81752,-1.3432 -1.4139,-0.2356 -2.92205,-0.3534 -4.52446,-0.3535 l -1.83806,0 0,-6.0798 42.13402,0 0,6.0798 -1.90875,0 c -1.60246,10e-5 -3.13417,0.1179 -4.59515,0.3535 -1.46107,0.2357 -2.73357,0.7306 -3.81752,1.4845 -1.03689,0.7071 -1.88523,1.744 -2.545,3.1106 -0.61272,1.3669 -0.91907,3.1814 -0.91904,5.4435 l 0,88.0149 c -0.28085,16.5219 -13.9696,25.6506 -30.36372,31.7756"
         id="path4725"
         style="font-size:130px;font-style:normal;font-variant:normal;font-weight:normal;font-stretch:normal;line-height:125%;letter-spacing:9.0199995px;word-spacing:0px;fill:#c100be;fill-opacity:1;stroke:none;font-family:Droid Serif;-inkscape-font-specification:Droid Serif" />
      <path
         d="m 500.84375,1045.75 c -4.57162,10e-5 -8.79163,0.5718 -12.65625,1.75 -3.86466,1.1783 -7.20349,2.8942 -10.03125,5.1562 -2.82781,2.2154 -5.05385,4.967 -6.65625,8.2188 -1.55529,3.2521 -2.34376,6.9462 -2.34375,11.0938 -10e-6,3.9588 0.541,7.5299 1.625,10.6874 1.08396,3.1578 2.75363,6.0328 4.96875,8.625 2.21508,2.5453 4.99752,4.8794 8.34375,7 3.34618,2.074 7.24139,4.0057 11.71875,5.8438 4.24164,1.7438 7.76592,3.429 10.59375,5.0312 2.87487,1.5553 5.19365,3.1938 6.9375,4.9376 1.74374,1.6966 2.99586,3.5672 3.75,5.5937 0.75402,2.0266 1.12494,4.3607 1.125,7 -6e-5,5.8912 -1.82394,10.4047 -5.5,13.5625 -3.62905,3.1106 -8.71489,4.6875 -15.21875,4.6875 -3.39338,0 -6.2839,-0.6337 -8.6875,-1.9063 -5.98707,-3.2318 -10.47034,-9.0058 -11.375,-16.3124 l 0,-3.1563 -9.96875,0 0,27.625 9.96875,0 0,-0.031 c 5.36667,0.1731 12.37213,0.7151 18.9375,0.8438 5.41989,0 10.33563,-0.6338 14.71875,-1.9062 4.38302,-1.3198 8.10813,-3.221 11.21875,-5.7188 3.1105,-2.4979 5.50664,-5.5432 7.15625,-9.125 1.69661,-3.6291 2.53118,-7.7409 2.53125,-12.3125 -7e-5,-3.7232 -0.58719,-7.0468 -1.8125,-9.9687 -1.22544,-2.9693 -3.0032,-5.6123 -5.3125,-7.9688 -2.30943,-2.4036 -5.15385,-4.5991 -8.5,-6.5312 -3.29914,-1.9324 -7.07087,-3.7562 -11.3125,-5.5 -4.19459,-1.6966 -7.71887,-3.3199 -10.59375,-4.875 -2.87495,-1.6024 -5.2091,-3.2874 -7,-5.0313 -1.74383,-1.7908 -2.99595,-3.7695 -3.75,-5.9375 -0.75411,-2.215 -1.12502,-4.75 -1.125,-7.625 -2e-5,-2.4978 0.41752,-4.7546 1.21875,-6.7812 0.80118,-2.0265 1.92932,-3.7424 3.4375,-5.1563 1.50812,-1.4609 3.36325,-2.5895 5.53125,-3.3437 2.21506,-0.8013 4.71931,-1.1875 7.5,-1.1876 3.0634,10e-5 5.61375,0.5412 7.6875,1.625 5.69345,2.9874 9.05878,11.4663 9.59375,17.5 l 0,2.0313 9.375,0 0,-24.625 -2.5625,0 c -7.83725,-2.1566 -16.57749,-3.7848 -23.53125,-3.8125 z"
         id="path4727"
         style="font-size:130px;font-style:normal;font-variant:normal;font-weight:normal;font-stretch:normal;line-height:125%;letter-spacing:9.0199995px;word-spacing:0px;fill:#c100be;fill-opacity:1;stroke:none;font-family:Droid Serif;-inkscape-font-specification:Droid Serif" />
      <path
         d="m 598.0625,1045.75 c -8.66868,10e-5 -16.29329,1.2831 -22.875,3.875 -6.58177,2.5923 -12.08994,6.2405 -16.53125,10.9062 -4.38785,4.6661 -7.72134,10.2464 -9.96875,16.75 -2.24743,6.504 -3.375,13.6453 -3.375,21.4688 0,7.965 1.07834,15.2304 3.21875,21.7812 2.14038,6.5513 5.29494,12.1779 9.46875,16.8438 4.22727,4.6658 9.44905,8.2674 15.65625,10.8125 6.20714,2.5449 13.40665,3.8125 21.59375,3.8125 9.1804,-0.194 17.48632,0.052 25.75,-1.625 l 0,0.5 10.5,0 0,-24.5 -10.5,0 0,5.0625 c -2.9941,10.2646 -14.97748,11.0647 -23.25,11.0313 -6.0467,0 -11.25948,-1.0667 -15.59375,-3.1876 -4.28085,-2.1206 -7.81125,-5.0887 -10.59375,-8.9062 -2.78256,-3.8646 -4.80953,-8.5023 -6.09375,-13.875 -1.28427,-5.3728 -1.93752,-11.2932 -1.9375,-17.75 -2e-5,-7.2579 0.61299,-13.6729 1.84375,-19.2812 1.23071,-5.6558 3.2397,-10.4012 5.96875,-14.2188 2.72897,-3.8645 6.25938,-6.7705 10.59375,-8.75 4.33426,-2.0265 9.60527,-3.0624 15.8125,-3.0625 10.60156,0.064 20.78814,5.7566 23.25,16.375 l 0,4.4375 10.5,0 0,-24.5 -3.15625,0 c -7.83001,-2.3712 -22.62288,-3.9223 -30.28125,-4 z"
         id="path4729"
         style="font-size:130px;font-style:normal;font-variant:normal;font-weight:normal;font-stretch:normal;line-height:125%;letter-spacing:9.0199995px;word-spacing:0px;fill:#c100be;fill-opacity:1;stroke:none;font-family:Droid Serif;-inkscape-font-specification:Droid Serif" />
      <path
         d="m 673.15728,1116.0139 -5.51418,15.1994 c -0.42419,1.1312 -0.7541,2.2623 -0.98973,3.3934 -0.23567,1.084 -0.35349,2.0265 -0.35347,2.8277 -2e-5,2.4509 0.77762,4.2417 2.33292,5.3729 1.60239,1.1311 4.02957,1.6966 7.28156,1.6966 l 3.32265,0 0,6.0798 -35.34734,0 0,-6.0798 2.75709,0 c 1.41389,0 2.6157,-0.1413 3.60543,-0.4242 0.98971,-0.3299 1.88518,-0.9189 2.6864,-1.7673 0.80119,-0.8483 1.55527,-2.003 2.26223,-3.464 0.75406,-1.4611 1.57883,-3.3463 2.47431,-5.6556 l 32.09539,-85.9647 11.31114,0 32.73163,89.5702 c 0.56547,1.508 1.13103,2.7571 1.69667,3.7467 0.6126,0.9898 1.31954,1.791 2.12085,2.4036 0.80111,0.5656 1.72014,0.9662 2.75708,1.2018 1.03677,0.2357 2.26214,0.3535 3.67614,0.3535 l 1.90874,0 0,6.0798 -39.80109,0 0,-6.0798 3.32265,0 c 5.79689,0 8.69537,-2.3094 8.69544,-6.928 -7e-5,-0.8012 -0.1179,-1.6261 -0.35347,-2.4744 -0.1886,-0.8483 -0.47137,-1.8144 -0.84834,-2.8984 l -5.79697,-16.1892 -38.03373,0 m 26.43981,-32.5901 c -1.50821,-4.2888 -2.89854,-8.2948 -4.17099,-12.0182 -1.22541,-3.7702 -2.2387,-7.3993 -3.03986,-10.887 -0.32996,1.744 -0.73057,3.4406 -1.20181,5.0901 -0.42422,1.6024 -0.89552,3.252 -1.41389,4.9486 -0.51848,1.6967 -1.1076,3.4877 -1.76738,5.3728 -0.65985,1.8381 -1.41393,3.8883 -2.26223,6.1504 l -9.82655,26.652 32.66093,0 -8.97822,-25.3087"
         id="path4731"
         style="font-size:130px;font-style:normal;font-variant:normal;font-weight:normal;font-stretch:normal;line-height:125%;letter-spacing:9.0199995px;word-spacing:0px;fill:#c100be;fill-opacity:1;stroke:none;font-family:Droid Serif;-inkscape-font-specification:Droid Serif" />
      <path
         d="m 858.64327,1098.7645 c -1.1e-4,7.9179 -1.07781,15.0816 -3.23312,21.4911 -2.15551,6.3627 -5.36295,11.806 -9.62236,16.3305 -4.25958,4.4774 -9.59677,7.9414 -16.0116,10.3922 -6.41498,2.4036 -13.90758,3.6054 -22.47782,3.6054 l -48.26575,0 0,-6.0798 2.00145,0 c 1.79618,0 3.46405,-0.1178 5.00363,-0.3535 1.59088,-0.2356 2.9765,-0.7068 4.15687,-1.4138 1.18032,-0.7541 2.10406,-1.8145 2.77123,-3.1813 0.66713,-1.3668 1.0007,-3.1812 1.00073,-5.4435 l 0,-70.9774 c -3e-5,-2.1207 -0.35926,-3.8175 -1.07771,-5.09 -0.66717,-1.3195 -1.59091,-2.3329 -2.77124,-3.0399 -1.18036,-0.7069 -2.56597,-1.1546 -4.15686,-1.3432 -1.53959,-0.2356 -3.1818,-0.3534 -4.92665,-0.3535 l -2.00145,0 0,-6.0797 48.26575,0 c 8.10837,0 15.34438,1.1547 21.70804,3.464 6.3635,2.2623 11.72635,5.5849 16.08857,9.968 4.41336,4.3831 7.77477,9.7795 10.08423,16.189 2.30927,6.4098 3.46395,13.7148 3.46406,21.9154 m -55.03989,44.4669 c 6.2609,0 11.72638,-0.9661 16.3965,-2.8984 4.72129,-1.9794 8.64721,-4.8544 11.77777,-8.6248 3.13039,-3.7704 5.46541,-8.4126 7.00507,-13.9268 1.59081,-5.5142 2.38625,-11.8531 2.38635,-19.0169 -1e-4,-14.3746 -3.13056,-25.3558 -9.39142,-32.9437 -6.20971,-7.5879 -15.5498,-11.3818 -28.0203,-11.3818 l -13.85619,0 0,88.7924 13.70222,0"
         id="path4733"
         style="font-size:130px;font-style:normal;font-variant:normal;font-weight:normal;font-stretch:normal;line-height:125%;letter-spacing:9.0199995px;word-spacing:0px;fill:#c100be;fill-opacity:1;stroke:none;font-family:Droid Serif;-inkscape-font-specification:Droid Serif" />
      <path
         d="m 877.20636,1146.2004 c -10e-6,-1.6927 0.21158,-3.0892 0.63477,-4.1894 0.42316,-1.1426 0.99445,-2.0524 1.71386,-2.7295 0.76171,-0.6771 1.62922,-1.1638 2.60254,-1.46 1.01561,-0.2962 2.09471,-0.4443 3.23731,-0.4443 1.10024,0 2.13702,0.1481 3.11035,0.4443 1.0156,0.2962 1.88311,0.7829 2.60254,1.46 0.76169,0.6771 1.35414,1.5869 1.77734,2.7295 0.46547,1.1002 0.69822,2.4967 0.69824,4.1894 -2e-5,1.6504 -0.23277,3.0469 -0.69824,4.1895 -0.4232,1.1426 -1.01565,2.0524 -1.77734,2.7295 -0.71943,0.677 -1.58694,1.1637 -2.60254,1.4599 -0.97333,0.2962 -2.01011,0.4444 -3.11035,0.4444 -1.1426,0 -2.2217,-0.1482 -3.23731,-0.4444 -0.97332,-0.2962 -1.84083,-0.7829 -2.60254,-1.4599 -0.71941,-0.6771 -1.2907,-1.5869 -1.71386,-2.7295 -0.42319,-1.1426 -0.63478,-2.5391 -0.63477,-4.1895"
         id="path4735"
         style="font-size:130px;font-style:normal;font-variant:normal;font-weight:normal;font-stretch:normal;line-height:125%;letter-spacing:9.0199995px;word-spacing:0px;fill:#5a5a5a;fill-opacity:1;stroke:none;font-family:Droid Serif;-inkscape-font-specification:Droid Serif" />
      <path
         d="m 978.2713,1119.1594 c -8e-5,12.2298 -2.83848,21.3281 -8.51526,27.2949 -5.63073,5.9668 -13.89213,8.9502 -24.78423,8.9502 -5.12302,0 -9.71526,-0.7405 -13.7767,-2.2217 -4.0615,-1.4811 -7.52299,-3.7239 -10.38447,-6.7285 -2.81535,-3.0045 -4.98454,-6.7708 -6.50758,-11.2988 -1.47691,-4.5703 -2.21536,-9.9023 -2.21535,-15.9961 -10e-6,-12.1451 2.79225,-21.18 8.37679,-27.1045 5.63066,-5.9244 13.93822,-8.8866 24.92269,-8.8867 5.12296,10e-5 9.71519,0.7406 13.77671,2.2217 4.06142,1.4388 7.49983,3.6605 10.31523,6.665 2.86142,2.9623 5.03062,6.7074 6.50759,11.2354 1.52298,4.4857 2.2845,9.7754 2.28458,15.8691 m -52.47611,0 c -2e-5,4.8243 0.34613,9.0772 1.03845,12.7588 0.69227,3.6817 1.79994,6.7708 3.32302,9.2676 1.56918,2.4544 3.57684,4.3164 6.02298,5.5859 2.49224,1.2695 5.51526,1.9043 9.06909,1.9043 3.55375,0 6.5537,-0.6348 8.99986,-1.9043 2.44606,-1.2695 4.43065,-3.1315 5.95376,-5.5859 1.523,-2.4968 2.6076,-5.5859 3.2538,-9.2676 0.69224,-3.6816 1.03838,-7.9345 1.03845,-12.7588 -7e-5,-4.8242 -0.34621,-9.0559 -1.03845,-12.6953 -0.69236,-3.6393 -1.80004,-6.665 -3.32303,-9.0772 -1.52311,-2.4543 -3.53077,-4.2951 -6.02299,-5.5224 -2.44616,-1.2272 -5.44611,-1.8408 -8.99985,-1.8408 -3.55383,0 -6.55379,0.6136 -8.99987,1.8408 -2.44614,1.2273 -4.43072,3.0681 -5.95375,5.5224 -1.52308,2.4122 -2.63075,5.4379 -3.32302,9.0772 -0.69232,3.6394 -1.03847,7.8711 -1.03845,12.6953"
         id="path4737"
         style="font-size:130px;font-style:normal;font-variant:normal;font-weight:normal;font-stretch:normal;line-height:125%;letter-spacing:9.0199995px;word-spacing:0px;fill:#5a5a5a;fill-opacity:1;stroke:none;font-family:Droid Serif;-inkscape-font-specification:Droid Serif" />
      <path
         d="m 1028.9221,1154.135 -37.51463,0 0,-5.459 0.38086,0 c 1.48111,0 2.85644,-0.1058 4.12598,-0.3174 1.31184,-0.2116 2.43325,-0.6347 3.36425,-1.2695 0.97334,-0.6771 1.73504,-1.6292 2.28514,-2.8565 0.5924,-1.2272 0.8887,-2.8564 0.8887,-4.8877 l 0,-40.5615 c 0,-1.9042 -0.2963,-3.4276 -0.8887,-4.5703 -0.5501,-1.1848 -1.3118,-2.0947 -2.28514,-2.7295 -0.97331,-0.6347 -2.11589,-1.0579 -3.42773,-1.2695 -1.26954,-0.2115 -2.6237,-0.3173 -4.0625,-0.3174 l -0.38086,0 0,-5.459 19.99513,0 2.4756,12.8858 0.6347,0 c 0.8464,-1.9466 1.7139,-3.7663 2.6026,-5.459 0.8886,-1.735 1.9677,-3.2373 3.2373,-4.5069 1.3118,-1.3117 2.9199,-2.3274 4.8242,-3.0468 1.9043,-0.7617 4.2952,-1.1425 7.1729,-1.1426 4.7395,10e-5 8.2519,0.8253 10.5371,2.4756 2.3274,1.6504 3.4911,3.9779 3.4912,6.9824 -1e-4,1.3542 -0.2328,2.6026 -0.6983,3.7451 -0.4232,1.1427 -1.1214,2.1371 -2.0947,2.9834 -0.9734,0.8041 -2.2217,1.4389 -3.7451,1.9043 -1.5235,0.4232 -3.3855,0.6348 -5.5859,0.6348 -10e-5,-3.597 -0.5079,-6.1783 -1.5235,-7.7442 -1.0157,-1.608 -2.793,-2.412 -5.332,-2.4121 -1.6081,10e-5 -3.0469,0.4656 -4.3164,1.3965 -1.2696,0.8887 -2.391,2.0948 -3.3643,3.6182 -0.931,1.4812 -1.735,3.195 -2.4121,5.1416 -0.6348,1.9466 -1.1638,3.9567 -1.5869,6.0303 -0.3809,2.0312 -0.656,4.0625 -0.8252,6.0937 -0.1693,2.0313 -0.2539,3.8721 -0.2539,5.5225 l 0,20.4394 c 0,1.9043 0.275,3.4489 0.8252,4.6338 0.5924,1.1426 1.3753,2.0101 2.3486,2.6025 0.9733,0.5925 2.0947,0.9945 3.3643,1.2061 1.3118,0.1693 2.6871,0.2539 4.126,0.2539 l 3.6181,0 0,5.459"
         id="path4739"
         style="font-size:130px;font-style:normal;font-variant:normal;font-weight:normal;font-stretch:normal;line-height:125%;letter-spacing:9.0199995px;word-spacing:0px;fill:#5a5a5a;fill-opacity:1;stroke:none;font-family:Droid Serif;-inkscape-font-specification:Droid Serif" />
      <path
         d="m 1083.0625,1083.1562 c -4.1048,1e-4 -7.6719,0.5561 -10.7187,1.6563 -3.047,1.1003 -5.5939,2.7078 -7.625,4.7813 -2.0313,2.0736 -3.547,4.569 -4.5626,7.5312 -1.0157,2.9623 -1.5312,6.3275 -1.5312,10.0938 0,2.1582 0.2421,4.25 0.75,6.2812 0.5501,2.0312 1.3392,3.9213 2.3125,5.6562 1.0156,1.6927 2.2175,3.2084 3.6563,4.5626 1.4812,1.3118 3.1692,2.3632 5.0312,3.125 -2.9623,1.7773 -5.1146,3.6269 -6.4688,5.5312 -1.3541,1.862 -2.0312,4.0749 -2.0312,6.6562 0,1.3965 0.2018,2.6701 0.625,3.8126 0.4232,1.1426 0.9791,2.1425 1.6562,3.0312 0.6771,0.8887 1.435,1.6464 2.2813,2.2812 0.8464,0.6348 1.7051,1.1504 2.5937,1.5313 -2.1582,0.3809 -4.2096,0.9975 -6.1562,1.8437 -1.9467,0.8464 -3.6641,1.9584 -5.1875,3.3126 -1.4811,1.3541 -2.6738,2.9707 -3.5625,4.875 -0.8887,1.9043 -1.3438,4.1172 -1.3438,6.6562 0,5.9668 2.2331,10.6256 6.7188,13.9688 4.4857,3.343 11.2565,5.0312 20.3125,5.0312 5.8821,0 10.996,-0.5762 15.3125,-1.7188 4.3586,-1.1424 7.9459,-2.7904 10.7812,-4.9062 2.8352,-2.0736 4.927,-4.5892 6.2813,-7.5938 1.3964,-3.0045 2.0937,-6.3698 2.0937,-10.0937 -10e-5,-2.793 -0.3834,-5.3803 -1.1874,-7.75 -0.7619,-2.4122 -2.0151,-4.4635 -3.75,-6.1563 -1.6928,-1.7349 -3.8855,-3.0891 -6.5938,-4.0624 -2.7083,-0.9734 -6.0131,-1.4688 -9.9062,-1.4688 l -14.7188,0 c -1.1426,0 -2.2344,-0.04 -3.25,-0.125 -0.9733,-0.1269 -1.812,-0.349 -2.5312,-0.6875 -0.7195,-0.3809 -1.2956,-0.8964 -1.7188,-1.5313 -0.3809,-0.6347 -0.5625,-1.4733 -0.5625,-2.5312 0,-0.9733 0.1615,-1.8835 0.5,-2.6875 0.3385,-0.8041 0.7937,-1.5215 1.3437,-2.1563 0.5926,-0.6348 1.2695,-1.1796 2.0313,-1.6874 0.7617,-0.5079 1.5599,-0.9831 2.4063,-1.4063 0.3385,0.042 0.7623,0.1025 1.3124,0.1875 0.5502,0.042 1.1466,0.083 1.7813,0.125 0.6348,0 1.2714,0.021 1.9063,0.062 l 1.7187,0 c 3.9355,0 7.3612,-0.5559 10.2813,-1.6563 2.9621,-1.1426 5.4082,-2.6984 7.3124,-4.6874 1.9467,-1.989 3.4016,-4.3542 4.375,-7.0626 0.9734,-2.7506 1.4687,-5.7212 1.4688,-8.9374 -10e-5,-3.7239 -0.4954,-6.8269 -1.4688,-9.2813 -0.8542,-2.2909 -2.6154,-4.776 0.4688,-6 l 11.1875,0 0,-6.875 -20.7813,0 c -3.9486,-0.45 -8.3626,-1.4782 -12.8437,-1.5313 z m -0.5,6.375 c 4.2317,1e-4 7.2226,1.3947 9,4.1876 1.7773,2.793 2.6874,7.0977 2.6875,12.9374 -10e-5,2.8353 -0.2331,5.3015 -0.6562,7.375 -0.3809,2.0312 -1.0378,3.6883 -1.9688,5 -0.931,1.3119 -2.1439,2.2716 -3.625,2.9063 -1.4389,0.6348 -3.1966,0.9687 -5.3125,0.9687 -4.1894,0 -7.2317,-1.2935 -9.0937,-3.875 -1.8198,-2.5813 -2.7188,-6.6438 -2.7188,-12.1874 0,-5.8399 0.879,-10.1647 2.6562,-13 1.8197,-2.8775 4.8418,-4.3125 9.0313,-4.3126 z m -4.9687,63.7188 12.7812,0 c 2.1582,0 4.0371,0.1413 5.6875,0.4375 1.6503,0.2962 3.0247,0.8119 4.125,1.5313 1.1425,0.7617 2.0124,1.7617 2.5625,3.0312 0.5924,1.3119 0.875,2.9798 0.875,4.9688 0,2.2851 -0.3431,4.3769 -1.0625,6.2812 -0.7194,1.9466 -1.9727,3.6035 -3.75,5 -1.7774,1.3965 -4.2032,2.4883 -7.25,3.25 -3.0046,0.804 -6.8139,1.2188 -11.4687,1.2188 -3.3008,-1e-4 -6.0293,-0.3543 -8.1876,-1.0313 -2.1581,-0.6771 -3.8867,-1.5964 -5.1562,-2.7813 -1.2695,-1.1848 -2.1484,-2.5996 -2.6562,-4.25 -0.5078,-1.6504 -0.7813,-3.4394 -0.7813,-5.3437 0,-2.5814 0.4146,-4.6732 1.2187,-6.2813 0.8041,-1.608 1.8444,-2.8613 3.1563,-3.75 1.3541,-0.8885 2.901,-1.485 4.5937,-1.7812 1.735,-0.3386 3.4928,-0.5 5.3126,-0.5 z"
         id="path4741"
         style="font-size:130px;font-style:normal;font-variant:normal;font-weight:normal;font-stretch:normal;line-height:125%;letter-spacing:9.0199995px;word-spacing:0px;fill:#5a5a5a;fill-opacity:1;stroke:none;font-family:Droid Serif;-inkscape-font-specification:Droid Serif" />
    </g>
  </g>
</svg>
