<svg viewBox="0 0 800 600" height="600" width="800" xmlns="http://www.w3.org/2000/svg" xmlns:xlink="http://www.w3.org/1999/xlink" id="svg-canvas" version="1.1">
<g transform="scale(0.1)">
<path fill="#000000" stroke="#ff4500" class="odd" d="M 67.5 29.06 C 65.3 29.11 62.37 29.69 61 30.33 C 59.62 30.97 57.01 32.63 55.2 34 C 53.38 35.38 50.71 38.3 49.25 40.5 C 47.8 42.7 45.57 46.53 44.31 49 C 43.04 51.48 42.01 55.19 42 57.25 C 42 59.31 41.66 61.18 41.25 61.39 C 40.84 61.61 40.2 65.1 39.83 69.14 C 39.36 74.27 39.59 78.09 40.58 81.75 C 41.36 84.64 41.99 87.79 41.97 88.75 C 41.95 89.71 43.53 92.64 45.47 95.25 C 48.31 99.07 49.52 99.95 51.65 99.75 C 53.73 99.55 54.84 98.4 56.9 94.32 C 58.33 91.47 61.86 86.74 64.74 83.82 C 67.62 80.89 69.98 77.94 69.99 77.25 C 70 76.56 73.1 72.74 76.88 68.75 C 80.67 64.76 84.65 59.7 85.74 57.5 C 86.82 55.3 89.01 52.52 90.61 51.32 L 93.5 49.15 L 91 48.19 C 89.63 47.67 86.85 44.82 84.84 41.87 C 82.82 38.92 79 34.8 76.34 32.72 C 72.47 29.71 70.7 28.97 67.5 29.06 Z ">
</path>
<path fill="#000000" stroke="#ff4500" class="odd" d="M 235.5 33.16 C 232.75 33.22 229.6 33.43 228.5 33.61 C 227.4 33.8 224.14 35.99 221.25 38.48 C 217.87 41.39 215.99 43.8 215.96 45.25 C 215.94 46.81 219.7 51.32 228.27 60 L 240.61 72.5 L 246.74 85 C 250.12 91.88 253.6 98.18 254.48 99 C 255.37 99.83 256.06 101.18 256.03 102 C 255.99 102.83 256.54 104.07 257.23 104.77 C 257.93 105.46 259.96 106.03 261.75 106.02 L 265 106 L 268 99.5 C 270.41 94.29 271 91.66 270.98 86.25 C 270.97 82.54 269.92 75 268.64 69.5 C 267.36 64 265.73 58.38 265 57 C 264.27 55.63 262.01 52.25 259.97 49.5 C 257.92 46.75 254.51 42.73 252.38 40.57 C 250.24 38.41 246.7 35.83 244.5 34.84 C 242.18 33.8 238.4 33.09 235.5 33.16 Z ">
</path>
<path fill="#000000" stroke="#ff4500" class="odd" d="M 124 118.01 C 123.18 118.05 120.7 118.96 118.5 120.02 C 116.3 121.09 112.58 124.11 110.24 126.74 C 107.9 129.36 105.99 132.06 105.99 132.75 C 106 133.44 104.88 135.69 103.51 137.75 C 102.15 139.81 100.57 141.95 100.01 142.5 C 99.45 143.05 97.53 144.77 95.75 146.33 C 93.96 147.89 90.7 150.49 88.5 152.11 C 86.3 153.74 84.28 155.04 84 155.01 C 83.73 154.98 82.43 157.56 81.12 160.73 C 79.55 164.53 78.97 167.35 79.42 169 C 79.79 170.38 80.35 172.63 80.67 174 C 80.98 175.38 82.21 177.4 83.4 178.5 C 84.59 179.6 85.78 180.95 86.03 181.5 C 86.29 182.05 88.3 184.01 90.5 185.86 C 93.99 188.79 94.95 189.13 98 188.5 C 99.93 188.1 103.08 186.76 105 185.53 C 106.93 184.3 109.99 181.54 111.81 179.4 C 113.64 177.25 118.25 171.79 122.06 167.25 C 125.88 162.71 129 158.55 129 158 C 129 157.45 130.57 155.43 132.5 153.5 C 135.4 150.6 136 149.27 136.01 145.75 C 136.02 143.41 136.58 138.71 137.26 135.3 L 138.5 129.1 L 136 126.41 C 134.63 124.94 131.7 122.43 129.5 120.84 C 127.3 119.24 124.83 117.97 124 118.01 Z ">
</path>
<path fill="#000000" stroke="#ff4500" class="odd" d="M 197 121.01 C 196.18 121.05 193.57 122.97 191.22 125.29 L 186.94 129.5 L 187.39 135 C 187.64 138.03 188.26 142.98 188.78 146 C 189.29 149.03 190.29 152.63 191 154 C 191.7 155.38 195.52 161.45 199.49 167.5 C 203.45 173.55 208.42 181.2 210.53 184.5 C 212.64 187.8 215.52 191.55 216.93 192.83 C 219.09 194.79 219.9 194.99 222 194.1 C 223.38 193.51 225.49 192.01 226.69 190.77 C 227.9 189.52 230.52 185.35 232.52 181.5 C 234.98 176.78 236 173.69 235.64 172 C 235.35 170.63 235.5 168.83 235.97 168 C 236.53 167.03 236.14 165.26 234.88 163 C 233.8 161.07 232.3 158.82 231.53 158 C 230.77 157.18 229.02 155.38 227.65 154 C 226.28 152.63 223.88 150.55 222.33 149.38 C 220.77 148.22 217.73 143.72 215.57 139.38 C 213.4 135.05 210.25 129.77 208.57 127.66 C 206.88 125.54 203.93 123.17 202 122.38 C 200.08 121.59 197.83 120.98 197 121.01 Z ">
</path>
<path fill="#000000" stroke="#ff4500" class="odd" d="M 33.25 170.98 C 32.84 170.98 31.92 175.14 31.2 180.23 C 30.49 185.33 29.48 194 28.95 199.5 C 28.43 205 27.35 216.93 26.56 226 C 25.77 235.08 24.64 243.74 24.06 245.25 C 23.48 246.76 23.2 248.56 23.44 249.25 C 23.69 249.94 24.13 256.58 24.43 264 C 24.73 271.43 25.43 277.95 25.99 278.5 C 26.67 279.17 26.69 281.67 26.06 286 C 25.54 289.58 25.26 298.35 25.45 305.5 C 25.64 312.65 26.11 322.33 26.49 327 C 26.88 331.68 28.21 338.65 29.46 342.5 C 30.7 346.35 32.3 350.63 33.01 352 C 33.73 353.38 35.33 358.55 36.57 363.5 C 37.81 368.45 39.55 374.53 40.44 377 C 41.32 379.48 42.03 384.2 42.03 387.5 C 42.02 390.8 42.46 395.19 43.01 397.25 L 44 401 L 95 401 L 146 401 L 145.43 392.75 C 145.11 388.21 144.25 381.8 143.52 378.5 C 142.78 375.2 141.9 367.55 141.55 361.5 C 141.21 355.45 140.07 346 139.03 340.5 C 137.98 335 136.86 327.8 136.53 324.5 C 136.19 321.2 135.43 316.48 134.82 314 C 134.22 311.52 134.01 307.36 134.36 304.75 C 134.83 301.28 135.93 298.99 138.42 296.25 L 141.85 292.5 L 155.67 292.65 C 163.28 292.73 169.63 293.18 169.78 293.65 C 169.94 294.12 168.85 296.3 167.37 298.5 C 165.89 300.7 164.34 304.08 163.94 306 C 163.53 307.93 162.7 311.98 162.09 315 C 161.48 318.02 160.99 322.3 161 324.5 C 161.02 326.7 161.66 330.3 162.43 332.5 C 163.2 334.7 165.14 338.98 166.74 342 C 168.34 345.03 170.78 349.3 172.17 351.5 C 173.56 353.7 175.33 356.01 176.1 356.63 C 176.87 357.25 178.63 358.1 180 358.53 C 181.38 358.95 183.63 360.12 185 361.12 C 186.38 362.12 189.98 363.57 193 364.33 C 196.03 365.09 200.75 365.62 203.5 365.5 C 206.25 365.38 212.33 364.96 217 364.55 C 221.68 364.15 228.65 362.91 232.5 361.8 C 236.35 360.69 240.85 359.39 242.5 358.92 C 244.15 358.45 247.3 356.88 249.5 355.41 C 251.7 353.95 254.85 352.07 256.5 351.23 C 258.15 350.4 262.2 347.93 265.5 345.76 L 271.5 341.8 L 280 344.01 L 288.5 346.22 L 292.87 344.86 C 295.28 344.11 297.6 343.05 298.02 342.5 C 298.45 341.95 299.68 338.8 300.75 335.5 C 301.82 332.2 303.28 328.38 303.98 327 C 304.8 325.42 305.41 319.01 305.67 309.5 C 305.91 300.46 305.62 292.51 304.94 289.5 C 304.32 286.75 302.32 281.13 300.51 277 C 298.69 272.88 296.45 267.02 295.53 264 C 294.61 260.98 293.05 257.38 292.07 256 C 291.01 254.52 288.5 253.02 285.89 252.32 C 283.48 251.68 280.54 250.33 279.36 249.32 C 277.9 248.08 276.55 244.63 275.11 238.5 C 273.95 233.55 273 228.26 273 226.75 C 273 225.24 272.55 223.78 272 223.5 C 271.45 223.23 270.99 222.21 270.99 221.25 C 270.98 220.29 270.08 217.59 268.99 215.25 C 267.89 212.91 266.55 211 266 211 C 265.45 211 265.02 212.01 265.04 213.25 C 265.07 214.49 264.37 216.18 263.5 217 C 262.63 217.83 261.95 219.63 261.99 221 C 262.03 222.38 261.26 224.28 260.28 225.24 C 259.3 226.19 257.15 227.35 255.5 227.81 C 253.36 228.41 252.5 229.27 252.5 230.8 C 252.5 231.98 251.49 233.64 250.25 234.48 C 249.01 235.31 247.44 235.83 246.75 235.63 C 246.06 235.43 244.83 235.89 244 236.66 C 243.18 237.43 240.56 238.16 238.2 238.28 C 234.85 238.45 233.07 239.27 230.2 241.94 C 228.16 243.84 225.38 245.67 224 246.02 C 222.45 246.42 221.29 247.57 220.96 249.08 C 220.51 251.04 219.64 251.59 216.3 252 C 214.04 252.28 211.14 253.44 209.85 254.6 C 208.56 255.75 205.59 257.44 203.25 258.35 C 200.91 259.26 198.21 259.99 197.25 259.99 C 196.29 259.98 193.03 261.16 190 262.61 C 185.79 264.63 182.15 265.43 174.5 266.02 C 169 266.44 162.7 266.55 160.5 266.26 C 158.3 265.97 155.82 265.12 155 264.37 C 153.73 263.21 152.85 263.23 149.25 264.5 C 145.45 265.84 144.55 265.83 140.75 264.45 C 138.41 263.6 133.13 261.1 129 258.89 L 121.5 254.88 L 116.75 256.44 C 114.14 257.3 110.99 258 109.75 258 C 108.51 258 104.8 256.2 101.5 254 C 98.2 251.8 94.6 250.01 93.5 250.01 C 92.4 250.01 89.93 248.98 88 247.73 C 86.08 246.47 82.7 244.84 80.5 244.1 C 78.3 243.36 75.83 242.19 75 241.49 C 74.18 240.8 71.03 239.09 68 237.7 C 64.97 236.3 61.94 234.56 61.25 233.83 C 60.57 233.1 59.73 229.8 59.39 226.5 C 59.04 223.2 58.14 219.49 57.38 218.25 C 56.28 216.45 55.35 216.1 52.75 216.49 C 50.29 216.87 48.95 216.44 47.22 214.74 C 45.97 213.51 44.96 211.49 44.97 210.25 C 44.99 209.01 44.55 207.78 44 207.5 C 43.45 207.23 43 205.65 43 204 C 43 202.35 42.55 200.78 42 200.5 C 41.45 200.23 41.02 198.99 41.03 197.75 C 41.05 196.51 40.19 194.38 39.11 193 C 37.83 191.36 37.44 189.98 37.99 189 C 38.47 188.14 38.38 186.43 37.79 185 C 37.21 183.63 36.8 180.93 36.88 179 C 36.95 177.08 36.34 174.49 35.51 173.25 C 34.68 172.01 33.66 170.99 33.25 170.98 Z ">
</path>
<path fill="#000000" stroke="#ff4500" class="odd" d="M 148 213.19 C 144.43 213.27 139.93 213.48 138 213.66 C 136.07 213.83 133.94 214.66 133.25 215.49 C 132.27 216.68 132.25 217.8 133.19 220.75 C 133.85 222.81 136.21 226.21 138.44 228.29 C 140.67 230.38 142.84 232.07 143.25 232.04 C 143.66 232.02 146.81 233.74 150.25 235.86 C 153.72 238 156.9 240.78 157.4 242.11 C 157.9 243.42 158.01 245.29 157.65 246.25 C 157.21 247.43 155.46 248.2 152.25 248.63 C 149.64 248.98 144.57 248.9 141 248.47 C 137.43 248.03 132.93 247.63 131 247.58 C 128.16 247.52 127.5 247.87 127.5 249.46 C 127.5 250.93 128.49 251.62 131.5 252.26 C 133.7 252.73 136.13 253.65 136.9 254.3 C 137.92 255.17 145.8 255.5 165.22 255.5 L 192.14 255.5 L 193.82 253.69 C 195.13 252.28 195.25 251.5 194.38 250.19 C 193.44 248.77 191.45 248.5 181.88 248.5 C 175.62 248.5 169.94 248.16 169.25 247.75 C 168.56 247.34 168 246.55 168 246 C 168 245.45 169.46 243.37 171.25 241.38 C 173.04 239.39 177.2 236.28 180.5 234.47 C 183.8 232.66 187.96 229.79 189.75 228.09 C 192.54 225.44 192.96 224.4 192.75 220.79 L 192.5 216.57 L 189 215.62 C 187.08 215.1 182.35 214.69 178.5 214.71 C 174.65 214.73 169.48 214.84 167 214.96 C 164.53 215.08 160.7 214.69 158.5 214.11 C 156.3 213.53 151.57 213.11 148 213.19 Z ">
</path>
</g>
</svg>
          
