  0
SECTION
  2
BLOCKS
  0
ENDSEC
  0
SECTION
  2
ENTITIES
  0
LINE
  8
0
 10
-147
 11
-146.675
 20
-108
 21
-106.052
  0
LINE
  8
0
 10
-146.675
 11
-145.735
 20
-106.052
 21
-104.315
  0
LINE
  8
0
 10
-145.735
 11
-144.282
 20
-104.315
 21
-102.977
  0
LINE
  8
0
 10
-144.282
 11
-142.473
 20
-102.977
 21
-102.184
  0
LINE
  8
0
 10
-142.473
 11
-141
 20
-102.184
 21
-102.061
  0
LINE
  8
0
 10
-141
 11
-141
 20
-102.061
 21
-102
  0
LINE
  8
0
 10
-141
 11
-138
 20
-102
 21
-102
  0
LINE
  8
0
 10
-138
 11
-137.943
 20
-102
 21
-101.943
  0
LINE
  8
0
 10
-137.943
 11
-137.505
 20
-101.943
 21
-101.98
  0
LINE
  8
0
 10
-137.505
 11
-135.59
 20
-101.98
 21
-101.495
  0
LINE
  8
0
 10
-135.59
 11
-133.936
 20
-101.495
 21
-100.414
  0
LINE
  8
0
 10
-133.936
 11
-132.723
 20
-100.414
 21
-98.856
  0
LINE
  8
0
 10
-132.723
 11
-132.082
 20
-98.856
 21
-96.988
  0
LINE
  8
0
 10
-132.082
 11
-132.082
 20
-96.988
 21
-96.082
  0
LINE
  8
0
 10
-132.082
 11
-132
 20
-96.082
 21
-96
  0
LINE
  8
0
 10
-132
 11
-132
 20
-96
 21
-40
  0
LINE
  8
0
 10
-132
 11
-126
 20
-40
 21
-40
  0
LINE
  8
0
 10
-126
 11
-126
 20
-40
 21
-34
  0
LINE
  8
0
 10
-126
 11
-116
 20
-34
 21
-34
  0
LINE
  8
0
 10
-116
 11
-116
 20
-34
 21
-40
  0
LINE
  8
0
 10
-116
 11
-110
 20
-40
 21
-40
  0
LINE
  8
0
 10
-110
 11
-110
 20
-40
 21
-34
  0
LINE
  8
0
 10
-110
 11
-109.944
 20
-34
 21
-34.056
  0
LINE
  8
0
 10
-109.944
 11
-109.505
 20
-34.056
 21
-34.02
  0
LINE
  8
0
 10
-109.505
 11
-107.59
 20
-34.02
 21
-34.505
  0
LINE
  8
0
 10
-107.59
 11
-105.936
 20
-34.505
 21
-35.586
  0
LINE
  8
0
 10
-105.936
 11
-104.723
 20
-35.586
 21
-37.144
  0
LINE
  8
0
 10
-104.723
 11
-104.082
 20
-37.144
 21
-39.012
  0
LINE
  8
0
 10
-104.082
 11
-104.082
 20
-39.012
 21
-39.918
  0
LINE
  8
0
 10
-104.082
 11
-104
 20
-39.918
 21
-40
  0
LINE
  8
0
 10
-104
 11
-104
 20
-40
 21
-96
  0
LINE
  8
0
 10
-104
 11
-103.675
 20
-96
 21
-97.948
  0
LINE
  8
0
 10
-103.675
 11
-102.735
 20
-97.948
 21
-99.685
  0
LINE
  8
0
 10
-102.735
 11
-101.282
 20
-99.685
 21
-101.023
  0
LINE
  8
0
 10
-101.282
 11
-99.473
 20
-101.023
 21
-101.816
  0
LINE
  8
0
 10
-99.473
 11
-98.067
 20
-101.816
 21
-101.933
  0
LINE
  8
0
 10
-98.067
 11
-98
 20
-101.933
 21
-102
  0
LINE
  8
0
 10
-98
 11
-61
 20
-102
 21
-102
  0
LINE
  8
0
 10
-61
 11
-60.944
 20
-102
 21
-102.056
  0
LINE
  8
0
 10
-60.944
 11
-60.505
 20
-102.056
 21
-102.02
  0
LINE
  8
0
 10
-60.505
 11
-58.59
 20
-102.02
 21
-102.505
  0
LINE
  8
0
 10
-58.59
 11
-56.936
 20
-102.505
 21
-103.586
  0
LINE
  8
0
 10
-56.936
 11
-55.723
 20
-103.586
 21
-105.144
  0
LINE
  8
0
 10
-55.723
 11
-55.082
 20
-105.144
 21
-107.012
  0
LINE
  8
0
 10
-55.082
 11
-55.082
 20
-107.012
 21
-107.918
  0
LINE
  8
0
 10
-55.082
 11
-55
 20
-107.918
 21
-108
  0
LINE
  8
0
 10
-55
 11
-61
 20
-108
 21
-108
  0
LINE
  8
0
 10
-61
 11
-61
 20
-108
 21
-114
  0
LINE
  8
0
 10
-61
 11
-76
 20
-114
 21
-114
  0
LINE
  8
0
 10
-76
 11
-76
 20
-114
 21
-108
  0
LINE
  8
0
 10
-76
 11
-82
 20
-108
 21
-108
  0
LINE
  8
0
 10
-82
 11
-82
 20
-108
 21
-114
  0
LINE
  8
0
 10
-82
 11
-141
 20
-114
 21
-114
  0
LINE
  8
0
 10
-141
 11
-141
 20
-114
 21
-113.939
  0
LINE
  8
0
 10
-141
 11
-142.473
 20
-113.939
 21
-113.816
  0
LINE
  8
0
 10
-142.473
 11
-144.282
 20
-113.816
 21
-113.023
  0
LINE
  8
0
 10
-144.282
 11
-145.735
 20
-113.023
 21
-111.685
  0
LINE
  8
0
 10
-145.735
 11
-146.675
 20
-111.685
 21
-109.948
  0
LINE
  8
0
 10
-146.675
 11
-147
 20
-109.948
 21
-108
  0
LINE
  8
0
 10
-102
 11
-99.771
 20
0
 21
21.207
  0
LINE
  8
0
 10
-99.771
 11
-93.182
 20
21.207
 21
41.487
  0
LINE
  8
0
 10
-93.182
 11
-82.52
 20
41.487
 21
59.954
  0
LINE
  8
0
 10
-82.52
 11
-68.251
 20
59.954
 21
75.801
  0
LINE
  8
0
 10
-68.251
 11
-51
 20
75.801
 21
88.335
  0
LINE
  8
0
 10
-51
 11
-31.52
 20
88.335
 21
97.008
  0
LINE
  8
0
 10
-31.52
 11
-10.662
 20
97.008
 21
101.441
  0
LINE
  8
0
 10
-10.662
 11
10.662
 20
101.441
 21
101.441
  0
LINE
  8
0
 10
10.662
 11
31.52
 20
101.441
 21
97.008
  0
LINE
  8
0
 10
31.52
 11
51
 20
97.008
 21
88.335
  0
LINE
  8
0
 10
51
 11
68.251
 20
88.335
 21
75.801
  0
LINE
  8
0
 10
68.251
 11
82.52
 20
75.801
 21
59.954
  0
LINE
  8
0
 10
82.52
 11
93.182
 20
59.954
 21
41.487
  0
LINE
  8
0
 10
93.182
 11
99.771
 20
41.487
 21
21.207
  0
LINE
  8
0
 10
99.771
 11
102
 20
21.207
 21
0
  0
LINE
  8
0
 10
102
 11
99.771
 20
0
 21
-21.207
  0
LINE
  8
0
 10
99.771
 11
93.182
 20
-21.207
 21
-41.487
  0
LINE
  8
0
 10
93.182
 11
82.52
 20
-41.487
 21
-59.954
  0
LINE
  8
0
 10
82.52
 11
68.251
 20
-59.954
 21
-75.801
  0
LINE
  8
0
 10
68.251
 11
51
 20
-75.801
 21
-88.335
  0
LINE
  8
0
 10
51
 11
31.52
 20
-88.335
 21
-97.008
  0
LINE
  8
0
 10
31.52
 11
10.662
 20
-97.008
 21
-101.441
  0
LINE
  8
0
 10
10.662
 11
-10.662
 20
-101.441
 21
-101.441
  0
LINE
  8
0
 10
-10.662
 11
-31.52
 20
-101.441
 21
-97.008
  0
LINE
  8
0
 10
-31.52
 11
-51
 20
-97.008
 21
-88.335
  0
LINE
  8
0
 10
-51
 11
-68.251
 20
-88.335
 21
-75.801
  0
LINE
  8
0
 10
-68.251
 11
-82.52
 20
-75.801
 21
-59.954
  0
LINE
  8
0
 10
-82.52
 11
-93.182
 20
-59.954
 21
-41.487
  0
LINE
  8
0
 10
-93.182
 11
-99.771
 20
-41.487
 21
-21.207
  0
LINE
  8
0
 10
-99.771
 11
-102
 20
-21.207
 21
0
  0
LINE
  8
0
 10
-84.638
 11
-71.648
 20
-45.402
 21
-37.902
  0
LINE
  8
0
 10
-71.648
 11
-68.648
 20
-37.902
 21
-43.098
  0
LINE
  8
0
 10
-68.648
 11
-81.638
 20
-43.098
 21
-50.598
  0
LINE
  8
0
 10
-81.638
 11
-84.638
 20
-50.598
 21
-45.402
  0
LINE
  8
0
 10
-75
 11
-73.361
 20
0
 21
15.593
  0
LINE
  8
0
 10
-73.361
 11
-68.516
 20
15.593
 21
30.505
  0
LINE
  8
0
 10
-68.516
 11
-60.676
 20
30.505
 21
44.084
  0
LINE
  8
0
 10
-60.676
 11
-50.185
 20
44.084
 21
55.736
  0
LINE
  8
0
 10
-50.185
 11
-37.5
 20
55.736
 21
64.952
  0
LINE
  8
0
 10
-37.5
 11
-23.176
 20
64.952
 21
71.329
  0
LINE
  8
0
 10
-23.176
 11
-7.84
 20
71.329
 21
74.589
  0
LINE
  8
0
 10
-7.84
 11
7.84
 20
74.589
 21
74.589
  0
LINE
  8
0
 10
7.84
 11
23.176
 20
74.589
 21
71.329
  0
LINE
  8
0
 10
23.176
 11
37.5
 20
71.329
 21
64.952
  0
LINE
  8
0
 10
37.5
 11
50.185
 20
64.952
 21
55.736
  0
LINE
  8
0
 10
50.185
 11
60.676
 20
55.736
 21
44.084
  0
LINE
  8
0
 10
60.676
 11
68.516
 20
44.084
 21
30.505
  0
LINE
  8
0
 10
68.516
 11
73.361
 20
30.505
 21
15.593
  0
LINE
  8
0
 10
73.361
 11
75
 20
15.593
 21
0
  0
LINE
  8
0
 10
75
 11
73.361
 20
0
 21
-15.593
  0
LINE
  8
0
 10
73.361
 11
68.516
 20
-15.593
 21
-30.505
  0
LINE
  8
0
 10
68.516
 11
60.676
 20
-30.505
 21
-44.084
  0
LINE
  8
0
 10
60.676
 11
50.185
 20
-44.084
 21
-55.736
  0
LINE
  8
0
 10
50.185
 11
37.5
 20
-55.736
 21
-64.952
  0
LINE
  8
0
 10
37.5
 11
23.176
 20
-64.952
 21
-71.329
  0
LINE
  8
0
 10
23.176
 11
7.84
 20
-71.329
 21
-74.589
  0
LINE
  8
0
 10
7.84
 11
-7.84
 20
-74.589
 21
-74.589
  0
LINE
  8
0
 10
-7.84
 11
-23.176
 20
-74.589
 21
-71.329
  0
LINE
  8
0
 10
-23.176
 11
-37.5
 20
-71.329
 21
-64.952
  0
LINE
  8
0
 10
-37.5
 11
-50.185
 20
-64.952
 21
-55.736
  0
LINE
  8
0
 10
-50.185
 11
-60.676
 20
-55.736
 21
-44.084
  0
LINE
  8
0
 10
-60.676
 11
-68.516
 20
-44.084
 21
-30.505
  0
LINE
  8
0
 10
-68.516
 11
-73.361
 20
-30.505
 21
-15.593
  0
LINE
  8
0
 10
-73.361
 11
-75
 20
-15.593
 21
0
  0
LINE
  8
0
 10
-47
 11
-45.973
 20
0
 21
9.772
  0
LINE
  8
0
 10
-45.973
 11
-42.937
 20
9.772
 21
19.117
  0
LINE
  8
0
 10
-42.937
 11
-38.024
 20
19.117
 21
27.626
  0
LINE
  8
0
 10
-38.024
 11
-31.449
 20
27.626
 21
34.928
  0
LINE
  8
0
 10
-31.449
 11
-23.5
 20
34.928
 21
40.703
  0
LINE
  8
0
 10
-23.5
 11
-14.524
 20
40.703
 21
44.7
  0
LINE
  8
0
 10
-14.524
 11
-4.913
 20
44.7
 21
46.743
  0
LINE
  8
0
 10
-4.913
 11
4.913
 20
46.743
 21
46.743
  0
LINE
  8
0
 10
4.913
 11
14.524
 20
46.743
 21
44.7
  0
LINE
  8
0
 10
14.524
 11
23.5
 20
44.7
 21
40.703
  0
LINE
  8
0
 10
23.5
 11
31.449
 20
40.703
 21
34.928
  0
LINE
  8
0
 10
31.449
 11
38.024
 20
34.928
 21
27.626
  0
LINE
  8
0
 10
38.024
 11
42.937
 20
27.626
 21
19.117
  0
LINE
  8
0
 10
42.937
 11
45.973
 20
19.117
 21
9.772
  0
LINE
  8
0
 10
45.973
 11
47
 20
9.772
 21
0
  0
LINE
  8
0
 10
47
 11
45.973
 20
0
 21
-9.772
  0
LINE
  8
0
 10
45.973
 11
42.937
 20
-9.772
 21
-19.117
  0
LINE
  8
0
 10
42.937
 11
38.024
 20
-19.117
 21
-27.626
  0
LINE
  8
0
 10
38.024
 11
31.449
 20
-27.626
 21
-34.928
  0
LINE
  8
0
 10
31.449
 11
23.5
 20
-34.928
 21
-40.703
  0
LINE
  8
0
 10
23.5
 11
14.524
 20
-40.703
 21
-44.7
  0
LINE
  8
0
 10
14.524
 11
4.913
 20
-44.7
 21
-46.743
  0
LINE
  8
0
 10
4.913
 11
-4.913
 20
-46.743
 21
-46.743
  0
LINE
  8
0
 10
-4.913
 11
-14.524
 20
-46.743
 21
-44.7
  0
LINE
  8
0
 10
-14.524
 11
-23.5
 20
-44.7
 21
-40.703
  0
LINE
  8
0
 10
-23.5
 11
-31.449
 20
-40.703
 21
-34.928
  0
LINE
  8
0
 10
-31.449
 11
-38.024
 20
-34.928
 21
-27.626
  0
LINE
  8
0
 10
-38.024
 11
-42.937
 20
-27.626
 21
-19.117
  0
LINE
  8
0
 10
-42.937
 11
-45.973
 20
-19.117
 21
-9.772
  0
LINE
  8
0
 10
-45.973
 11
-47
 20
-9.772
 21
0
  0
LINE
  8
0
 10
-37.007
 11
-28.347
 20
-17.902
 21
-12.902
  0
LINE
  8
0
 10
-28.347
 11
-25.347
 20
-12.902
 21
-18.098
  0
LINE
  8
0
 10
-25.347
 11
-34.007
 20
-18.098
 21
-23.098
  0
LINE
  8
0
 10
-34.007
 11
-37.007
 20
-23.098
 21
-17.902
  0
LINE
  8
0
 10
-25
 11
-24.454
 20
0
 21
5.198
  0
LINE
  8
0
 10
-24.454
 11
-22.839
 20
5.198
 21
10.168
  0
LINE
  8
0
 10
-22.839
 11
-20.225
 20
10.168
 21
14.695
  0
LINE
  8
0
 10
-20.225
 11
-16.728
 20
14.695
 21
18.579
  0
LINE
  8
0
 10
-16.728
 11
-12.5
 20
18.579
 21
21.651
  0
LINE
  8
0
 10
-12.5
 11
-7.725
 20
21.651
 21
23.776
  0
LINE
  8
0
 10
-7.725
 11
-2.613
 20
23.776
 21
24.863
  0
LINE
  8
0
 10
-2.613
 11
2.613
 20
24.863
 21
24.863
  0
LINE
  8
0
 10
2.613
 11
7.725
 20
24.863
 21
23.776
  0
LINE
  8
0
 10
7.725
 11
12.5
 20
23.776
 21
21.651
  0
LINE
  8
0
 10
12.5
 11
16.728
 20
21.651
 21
18.579
  0
LINE
  8
0
 10
16.728
 11
20.225
 20
18.579
 21
14.695
  0
LINE
  8
0
 10
20.225
 11
22.839
 20
14.695
 21
10.168
  0
LINE
  8
0
 10
22.839
 11
24.454
 20
10.168
 21
5.198
  0
LINE
  8
0
 10
24.454
 11
25
 20
5.198
 21
0
  0
LINE
  8
0
 10
25
 11
24.454
 20
0
 21
-5.198
  0
LINE
  8
0
 10
24.454
 11
22.839
 20
-5.198
 21
-10.168
  0
LINE
  8
0
 10
22.839
 11
20.225
 20
-10.168
 21
-14.695
  0
LINE
  8
0
 10
20.225
 11
16.728
 20
-14.695
 21
-18.579
  0
LINE
  8
0
 10
16.728
 11
12.5
 20
-18.579
 21
-21.651
  0
LINE
  8
0
 10
12.5
 11
7.725
 20
-21.651
 21
-23.776
  0
LINE
  8
0
 10
7.725
 11
2.613
 20
-23.776
 21
-24.863
  0
LINE
  8
0
 10
2.613
 11
-2.613
 20
-24.863
 21
-24.863
  0
LINE
  8
0
 10
-2.613
 11
-7.725
 20
-24.863
 21
-23.776
  0
LINE
  8
0
 10
-7.725
 11
-12.5
 20
-23.776
 21
-21.651
  0
LINE
  8
0
 10
-12.5
 11
-16.728
 20
-21.651
 21
-18.579
  0
LINE
  8
0
 10
-16.728
 11
-20.225
 20
-18.579
 21
-14.695
  0
LINE
  8
0
 10
-20.225
 11
-22.839
 20
-14.695
 21
-10.168
  0
LINE
  8
0
 10
-22.839
 11
-24.454
 20
-10.168
 21
-5.198
  0
LINE
  8
0
 10
-24.454
 11
-25
 20
-5.198
 21
0
  0
LINE
  8
0
 10
-3
 11
-3
 20
31
 21
41
  0
LINE
  8
0
 10
-3
 11
3
 20
41
 21
41
  0
LINE
  8
0
 10
3
 11
3
 20
41
 21
31
  0
LINE
  8
0
 10
3
 11
-3
 20
31
 21
31
  0
LINE
  8
0
 10
-3
 11
-3
 20
81
 21
96
  0
LINE
  8
0
 10
-3
 11
3
 20
96
 21
96
  0
LINE
  8
0
 10
3
 11
3
 20
96
 21
81
  0
LINE
  8
0
 10
3
 11
-3
 20
81
 21
81
  0
LINE
  8
0
 10
25.347
 11
28.347
 20
-18.098
 21
-12.902
  0
LINE
  8
0
 10
28.347
 11
37.007
 20
-12.902
 21
-17.902
  0
LINE
  8
0
 10
37.007
 11
34.007
 20
-17.902
 21
-23.098
  0
LINE
  8
0
 10
34.007
 11
25.347
 20
-23.098
 21
-18.098
  0
LINE
  8
0
 10
55
 11
55.082
 20
-108
 21
-107.918
  0
LINE
  8
0
 10
55.082
 11
55.082
 20
-107.918
 21
-107.012
  0
LINE
  8
0
 10
55.082
 11
55.723
 20
-107.012
 21
-105.144
  0
LINE
  8
0
 10
55.723
 11
56.936
 20
-105.144
 21
-103.586
  0
LINE
  8
0
 10
56.936
 11
58.59
 20
-103.586
 21
-102.505
  0
LINE
  8
0
 10
58.59
 11
60.505
 20
-102.505
 21
-102.02
  0
LINE
  8
0
 10
60.505
 11
60.944
 20
-102.02
 21
-102.056
  0
LINE
  8
0
 10
60.944
 11
61
 20
-102.056
 21
-102
  0
LINE
  8
0
 10
61
 11
98
 20
-102
 21
-102
  0
LINE
  8
0
 10
98
 11
98.067
 20
-102
 21
-101.933
  0
LINE
  8
0
 10
98.067
 11
99.473
 20
-101.933
 21
-101.816
  0
LINE
  8
0
 10
99.473
 11
101.282
 20
-101.816
 21
-101.023
  0
LINE
  8
0
 10
101.282
 11
102.735
 20
-101.023
 21
-99.685
  0
LINE
  8
0
 10
102.735
 11
103.675
 20
-99.685
 21
-97.948
  0
LINE
  8
0
 10
103.675
 11
104
 20
-97.948
 21
-96
  0
LINE
  8
0
 10
104
 11
104
 20
-96
 21
-40
  0
LINE
  8
0
 10
104
 11
104.082
 20
-40
 21
-39.918
  0
LINE
  8
0
 10
104.082
 11
104.082
 20
-39.918
 21
-39.012
  0
LINE
  8
0
 10
104.082
 11
104.723
 20
-39.012
 21
-37.144
  0
LINE
  8
0
 10
104.723
 11
105.936
 20
-37.144
 21
-35.586
  0
LINE
  8
0
 10
105.936
 11
107.59
 20
-35.586
 21
-34.505
  0
LINE
  8
0
 10
107.59
 11
109.505
 20
-34.505
 21
-34.02
  0
LINE
  8
0
 10
109.505
 11
109.944
 20
-34.02
 21
-34.056
  0
LINE
  8
0
 10
109.944
 11
110
 20
-34.056
 21
-34
  0
LINE
  8
0
 10
110
 11
110
 20
-34
 21
-40
  0
LINE
  8
0
 10
110
 11
116
 20
-40
 21
-40
  0
LINE
  8
0
 10
116
 11
116
 20
-40
 21
-34
  0
LINE
  8
0
 10
116
 11
126
 20
-34
 21
-34
  0
LINE
  8
0
 10
126
 11
126
 20
-34
 21
-40
  0
LINE
  8
0
 10
126
 11
132
 20
-40
 21
-40
  0
LINE
  8
0
 10
132
 11
132
 20
-40
 21
-96
  0
LINE
  8
0
 10
132
 11
132.082
 20
-96
 21
-96.082
  0
LINE
  8
0
 10
132.082
 11
132.082
 20
-96.082
 21
-96.988
  0
LINE
  8
0
 10
132.082
 11
132.723
 20
-96.988
 21
-98.856
  0
LINE
  8
0
 10
132.723
 11
133.936
 20
-98.856
 21
-100.414
  0
LINE
  8
0
 10
133.936
 11
135.59
 20
-100.414
 21
-101.495
  0
LINE
  8
0
 10
135.59
 11
137.505
 20
-101.495
 21
-101.98
  0
LINE
  8
0
 10
137.505
 11
137.943
 20
-101.98
 21
-101.943
  0
LINE
  8
0
 10
137.943
 11
138
 20
-101.943
 21
-102
  0
LINE
  8
0
 10
138
 11
141
 20
-102
 21
-102
  0
LINE
  8
0
 10
141
 11
141
 20
-102
 21
-102.061
  0
LINE
  8
0
 10
141
 11
142.473
 20
-102.061
 21
-102.184
  0
LINE
  8
0
 10
142.473
 11
144.282
 20
-102.184
 21
-102.977
  0
LINE
  8
0
 10
144.282
 11
145.735
 20
-102.977
 21
-104.315
  0
LINE
  8
0
 10
145.735
 11
146.675
 20
-104.315
 21
-106.052
  0
LINE
  8
0
 10
146.675
 11
147
 20
-106.052
 21
-108
  0
LINE
  8
0
 10
147
 11
146.675
 20
-108
 21
-109.948
  0
LINE
  8
0
 10
146.675
 11
145.735
 20
-109.948
 21
-111.685
  0
LINE
  8
0
 10
145.735
 11
144.282
 20
-111.685
 21
-113.023
  0
LINE
  8
0
 10
144.282
 11
142.473
 20
-113.023
 21
-113.816
  0
LINE
  8
0
 10
142.473
 11
141
 20
-113.816
 21
-113.939
  0
LINE
  8
0
 10
141
 11
141
 20
-113.939
 21
-114
  0
LINE
  8
0
 10
141
 11
82
 20
-114
 21
-114
  0
LINE
  8
0
 10
82
 11
82
 20
-114
 21
-108
  0
LINE
  8
0
 10
82
 11
76
 20
-108
 21
-108
  0
LINE
  8
0
 10
76
 11
76
 20
-108
 21
-114
  0
LINE
  8
0
 10
76
 11
61
 20
-114
 21
-114
  0
LINE
  8
0
 10
61
 11
61
 20
-114
 21
-108
  0
LINE
  8
0
 10
61
 11
55
 20
-108
 21
-108
  0
LINE
  8
0
 10
55
 11
61
 20
108
 21
108
  0
LINE
  8
0
 10
61
 11
61
 20
108
 21
114
  0
LINE
  8
0
 10
61
 11
76
 20
114
 21
114
  0
LINE
  8
0
 10
76
 11
76
 20
114
 21
108
  0
LINE
  8
0
 10
76
 11
82
 20
108
 21
108
  0
LINE
  8
0
 10
82
 11
82
 20
108
 21
114
  0
LINE
  8
0
 10
82
 11
141
 20
114
 21
114
  0
LINE
  8
0
 10
141
 11
141
 20
114
 21
113.939
  0
LINE
  8
0
 10
141
 11
142.473
 20
113.939
 21
113.816
  0
LINE
  8
0
 10
142.473
 11
144.282
 20
113.816
 21
113.023
  0
LINE
  8
0
 10
144.282
 11
145.735
 20
113.023
 21
111.685
  0
LINE
  8
0
 10
145.735
 11
146.675
 20
111.685
 21
109.948
  0
LINE
  8
0
 10
146.675
 11
147
 20
109.948
 21
108
  0
LINE
  8
0
 10
147
 11
146.675
 20
108
 21
106.052
  0
LINE
  8
0
 10
146.675
 11
145.735
 20
106.052
 21
104.315
  0
LINE
  8
0
 10
145.735
 11
144.282
 20
104.315
 21
102.977
  0
LINE
  8
0
 10
144.282
 11
142.473
 20
102.977
 21
102.184
  0
LINE
  8
0
 10
142.473
 11
141
 20
102.184
 21
102.061
  0
LINE
  8
0
 10
141
 11
141
 20
102.061
 21
102
  0
LINE
  8
0
 10
141
 11
138
 20
102
 21
102
  0
LINE
  8
0
 10
138
 11
137.943
 20
102
 21
101.943
  0
LINE
  8
0
 10
137.943
 11
137.505
 20
101.943
 21
101.98
  0
LINE
  8
0
 10
137.505
 11
135.59
 20
101.98
 21
101.495
  0
LINE
  8
0
 10
135.59
 11
133.936
 20
101.495
 21
100.414
  0
LINE
  8
0
 10
133.936
 11
132.723
 20
100.414
 21
98.856
  0
LINE
  8
0
 10
132.723
 11
132.082
 20
98.856
 21
96.988
  0
LINE
  8
0
 10
132.082
 11
132.082
 20
96.988
 21
96.082
  0
LINE
  8
0
 10
132.082
 11
132
 20
96.082
 21
96
  0
LINE
  8
0
 10
132
 11
132
 20
96
 21
40
  0
LINE
  8
0
 10
132
 11
126
 20
40
 21
40
  0
LINE
  8
0
 10
126
 11
126
 20
40
 21
34
  0
LINE
  8
0
 10
126
 11
116
 20
34
 21
34
  0
LINE
  8
0
 10
116
 11
116
 20
34
 21
40
  0
LINE
  8
0
 10
116
 11
110
 20
40
 21
40
  0
LINE
  8
0
 10
110
 11
110
 20
40
 21
34
  0
LINE
  8
0
 10
110
 11
109.944
 20
34
 21
34.056
  0
LINE
  8
0
 10
109.944
 11
109.505
 20
34.056
 21
34.02
  0
LINE
  8
0
 10
109.505
 11
107.59
 20
34.02
 21
34.505
  0
LINE
  8
0
 10
107.59
 11
105.936
 20
34.505
 21
35.586
  0
LINE
  8
0
 10
105.936
 11
104.723
 20
35.586
 21
37.144
  0
LINE
  8
0
 10
104.723
 11
104.082
 20
37.144
 21
39.012
  0
LINE
  8
0
 10
104.082
 11
104.082
 20
39.012
 21
39.918
  0
LINE
  8
0
 10
104.082
 11
104
 20
39.918
 21
40
  0
LINE
  8
0
 10
104
 11
104
 20
40
 21
96
  0
LINE
  8
0
 10
104
 11
103.675
 20
96
 21
97.948
  0
LINE
  8
0
 10
103.675
 11
102.735
 20
97.948
 21
99.685
  0
LINE
  8
0
 10
102.735
 11
101.282
 20
99.685
 21
101.023
  0
LINE
  8
0
 10
101.282
 11
99.473
 20
101.023
 21
101.816
  0
LINE
  8
0
 10
99.473
 11
98.067
 20
101.816
 21
101.933
  0
LINE
  8
0
 10
98.067
 11
98
 20
101.933
 21
102
  0
LINE
  8
0
 10
98
 11
61
 20
102
 21
102
  0
LINE
  8
0
 10
61
 11
60.944
 20
102
 21
102.056
  0
LINE
  8
0
 10
60.944
 11
60.505
 20
102.056
 21
102.02
  0
LINE
  8
0
 10
60.505
 11
58.59
 20
102.02
 21
102.505
  0
LINE
  8
0
 10
58.59
 11
56.936
 20
102.505
 21
103.586
  0
LINE
  8
0
 10
56.936
 11
55.723
 20
103.586
 21
105.144
  0
LINE
  8
0
 10
55.723
 11
55.082
 20
105.144
 21
107.012
  0
LINE
  8
0
 10
55.082
 11
55.082
 20
107.012
 21
107.918
  0
LINE
  8
0
 10
55.082
 11
55
 20
107.918
 21
108
  0
LINE
  8
0
 10
68.648
 11
71.648
 20
-43.098
 21
-37.902
  0
LINE
  8
0
 10
71.648
 11
84.638
 20
-37.902
 21
-45.402
  0
LINE
  8
0
 10
84.638
 11
81.638
 20
-45.402
 21
-50.598
  0
LINE
  8
0
 10
81.638
 11
68.648
 20
-50.598
 21
-43.098
  0
ENDSEC
  0
SECTION
  2
OBJECTS
  0
DICTIONARY
  0
ENDSEC
  0
EOF
